<?xml version="1.0" encoding="UTF-8"?>
<svg version="1.1" xmlns="http://www.w3.org/2000/svg" width="512" height="512">
<path d="M0 0 C4.07733699 3.00343453 7.21919777 6.52868707 8.82421875 11.34375 C8.9206789 13.60827126 8.95444218 15.87559891 8.95729733 18.14217186 C8.95954035 18.84072534 8.96178338 19.53927883 8.96409437 20.2590006 C8.97044892 22.61737482 8.96966938 24.975694 8.96897888 27.33407593 C8.97211143 29.03506829 8.97568596 30.73605988 8.97966629 32.43705046 C8.98938495 37.12542717 8.99291816 41.81379168 8.99550927 46.502177 C8.99939722 51.55355079 9.00903508 56.60491376 9.01806641 61.65628052 C9.03302049 70.41575272 9.04455839 79.17522406 9.05401421 87.93470383 C9.067879 100.61370053 9.08906649 113.29267725 9.11244274 125.97165962 C9.15038499 146.55971496 9.18534161 167.14777394 9.21704102 187.73583984 C9.21894151 188.96884782 9.220842 190.20185579 9.22280008 191.47222765 C9.24960939 208.95506526 9.2734877 226.43790565 9.29618508 243.92074902 C9.29778238 245.15072509 9.29937969 246.38070115 9.30102539 247.64794922 C9.30261886 248.87642698 9.30421232 250.10490473 9.30585407 251.37060909 C9.33263962 271.86807643 9.36704872 292.3655226 9.40767914 312.86296713 C9.43243311 325.50544852 9.4507716 338.14790715 9.46083475 350.79040892 C9.46823706 359.46064463 9.48278049 368.1308498 9.50289898 376.80106525 C9.51426788 381.80106622 9.52242593 386.80101797 9.52189064 391.80103302 C9.52146097 396.38452066 9.53024353 400.96789775 9.54614044 405.55135699 C9.55027355 407.20356878 9.55110581 408.85579309 9.54817634 410.50800745 C9.52365797 426.28090526 10.34557675 440.62989698 20.13671875 453.71875 C23.71548945 457.21429347 27.51498397 459.82231345 31.82421875 462.34375 C32.49066406 462.73820312 33.15710938 463.13265625 33.84375 463.5390625 C38.81355039 466.10473383 43.64730535 466.83957606 49.1328125 467.453125 C49.87366089 467.54062012 50.61450928 467.62811523 51.37780762 467.71826172 C53.19268445 467.9318627 55.00837739 468.13850995 56.82421875 468.34375 C56.82053158 467.58874899 56.81684441 466.83374798 56.8130455 466.05586815 C56.72447278 447.63313967 56.65840172 429.21045403 56.61697006 410.7875576 C56.59639832 401.87815041 56.56838156 392.96888589 56.52246094 384.05957031 C56.48242731 376.28867892 56.45674684 368.51789091 56.44786477 360.74689925 C56.44267781 356.63719028 56.43060089 352.52777694 56.40129852 348.4181633 C56.37386721 344.53902451 56.36582875 340.6602992 56.37178802 336.78107262 C56.37070002 335.36787979 56.36291256 333.95467111 56.34739685 332.54156303 C56.15675084 314.26006484 61.65979894 299.05116392 74.3203125 285.7265625 C88.96429949 271.79078705 104.76256496 266.98376435 124.609375 267.1484375 C125.90620712 267.1512674 127.20303925 267.15409729 128.53916931 267.15701294 C131.95698003 267.16458379 135.37461591 267.18417441 138.7923584 267.2064209 C142.29188676 267.22702196 145.79144387 267.23604489 149.29101562 267.24609375 C156.13548768 267.26742778 162.97984478 267.30148273 169.82421875 267.34375 C169.81800003 266.63257523 169.81178131 265.92140045 169.80537415 265.18867493 C169.78048188 261.92397336 169.76517538 258.65929187 169.75 255.39453125 C169.74005005 254.27598755 169.7301001 253.15744385 169.71984863 252.00500488 C169.64926534 231.72530957 174.86244148 214.99770968 188.984375 200.05859375 C204.44927638 185.49183546 222.78344889 182.15095531 243.296875 182.24609375 C245.04235878 182.24821617 245.04235878 182.24821617 246.82310486 182.25038147 C250.51100318 182.25594372 254.19883902 182.26848917 257.88671875 182.28125 C260.39908766 182.28626988 262.91145753 182.29083193 265.42382812 182.29492188 C271.5573127 182.30590077 277.69076126 182.32260097 283.82421875 182.34375 C283.79139297 181.07785034 283.79139297 181.07785034 283.75790405 179.78637695 C283.16285593 155.72248424 284.41912937 134.77817262 301.82421875 116.34375 C318.15437296 100.66793995 336.70564603 97.81494048 358.31689453 97.95263672 C361.31849614 97.96871934 364.31875164 97.95271822 367.3203125 97.93359375 C387.83868034 97.9090646 405.42843409 101.59281496 420.82421875 116.34375 C437.86215069 134.12650956 439.27974717 154.44739328 439.22827148 177.72973633 C439.23398255 180.07185185 439.24094965 182.41396459 439.24906921 184.756073 C439.26692737 191.08006728 439.26584691 197.40392226 439.26012683 203.72793412 C439.25663334 209.6872322 439.2646102 215.64651339 439.27148748 221.60580619 C439.28517258 234.12126527 439.27980125 246.63666158 439.26830227 259.15211918 C439.25835668 270.58772974 439.27134046 282.0231788 439.29523646 293.45876447 C439.31964364 305.2283471 439.32923244 316.99785454 439.32258373 328.76746196 C439.3192152 335.36444796 439.32162357 341.96130032 439.33883476 348.55826759 C439.35430201 354.75626657 439.35035042 360.95395644 439.33152962 367.15194321 C439.32784421 369.42349247 439.33095075 371.69506464 439.34141541 373.96659279 C439.35462874 377.07218503 439.3430743 380.17675421 439.32542419 383.28230286 C439.3350292 384.17647425 439.34463421 385.07064564 439.35453027 385.99191314 C439.27324926 392.9637623 437.67996496 399.31808415 432.7890625 404.5 C432.12003906 404.9434375 431.45101563 405.386875 430.76171875 405.84375 C430.09011719 406.3078125 429.41851562 406.771875 428.7265625 407.25 C423.73815614 410.11807758 418.4052207 409.88581722 412.82421875 409.34375 C406.88319683 407.59639061 403.30244601 404.35648929 399.82421875 399.34375 C397.30155702 394.61294684 397.54838586 390.03724632 397.57939148 384.81233215 C397.57712691 383.84731378 397.57486233 382.8822954 397.57252914 381.88803405 C397.56722851 378.65160757 397.57606826 375.41537207 397.5847168 372.17895508 C397.58360402 369.85949644 397.58154637 367.5400381 397.57861328 365.22058105 C397.5738882 360.22347765 397.57501427 355.22642121 397.58038902 350.22931862 C397.58799147 342.32477841 397.57736349 334.42031903 397.56318665 326.51579285 C397.55858566 323.80925103 397.55413527 321.10270898 397.54974842 318.3961668 C397.54810121 317.38159798 397.54810121 317.38159798 397.54642072 316.34653283 C397.53425118 308.65054012 397.52669622 300.95454473 397.52075195 293.25854492 C397.52020389 292.55521983 397.51965583 291.85189474 397.51909117 291.12725677 C397.51063714 279.73706958 397.51396759 268.34690605 397.5199063 256.95671872 C397.52553064 245.25179201 397.51195545 233.54698407 397.48235351 221.84209365 C397.4637037 213.9877967 397.46701439 206.1339137 397.48652112 198.27962363 C397.49341078 193.38649445 397.47942947 188.49358889 397.45957184 183.60050201 C397.45453134 181.33583262 397.45799184 179.07112545 397.47070503 176.80648613 C397.4868634 173.7071371 397.47212141 170.60936514 397.44999695 167.51008606 C397.4680532 166.17566246 397.4680532 166.17566246 397.48647422 164.81428081 C397.38202813 157.60553127 395.17079607 151.1934483 390.38159484 145.6842435 C384.7963611 140.675822 378.67549184 140.02921823 371.4609375 140.0078125 C370.66951859 140.0011557 369.87809967 139.9944989 369.06269836 139.98764038 C367.39444284 139.97755557 365.72614731 139.97282206 364.05786133 139.97314453 C361.52942063 139.96878055 359.00274084 139.93244461 356.47460938 139.89453125 C346.55410268 139.82485512 338.48432672 139.88625542 330.94921875 147.09375 C325.765415 155.02192044 325.38755709 161.81798298 325.42549133 171.07458496 C325.41884451 172.34732159 325.41219768 173.62005822 325.40534943 174.93136263 C325.38738129 178.4478346 325.38787411 181.96409477 325.3914789 185.48060179 C325.3921041 189.2787588 325.37547005 193.07684559 325.36096191 196.87496948 C325.33819442 203.45009383 325.326294 210.02516526 325.32183266 216.60032654 C325.31536656 226.10682113 325.29242109 235.61322014 325.26548936 245.11967617 C325.22223745 260.54428889 325.19226158 275.96889758 325.1706543 291.39355469 C325.14963983 306.37469462 325.12236064 321.3558016 325.08666992 336.33691406 C325.0844711 337.2607809 325.08227227 338.18464774 325.08000682 339.13651055 C325.06893705 343.77140781 325.05774426 348.40630477 325.04649031 353.04120159 C324.9533278 391.47535567 324.88171935 429.90952699 324.82421875 468.34375 C325.89544102 468.33960193 325.89544102 468.33960193 326.98830414 468.33537006 C344.38248773 468.26905451 361.77663913 468.21944233 379.17092133 468.18831348 C387.5827438 468.17285885 395.99448177 468.15179623 404.40625 468.11743164 C411.73979961 468.08748623 419.07328801 468.0681648 426.40689707 468.06148452 C430.28832485 468.05758095 434.16957755 468.04843646 438.0509491 468.02655983 C441.70841599 468.0061133 445.36563659 467.99993257 449.02315521 468.00442696 C450.99689382 468.0032153 452.97060595 467.98711605 454.9442749 467.9704895 C462.29099087 467.99597171 468.94377033 468.11503713 474.84765625 473.02734375 C475.29367187 473.60613281 475.7396875 474.18492187 476.19921875 474.78125 C476.66070312 475.35746094 477.1221875 475.93367188 477.59765625 476.52734375 C481.65723254 482.53913666 481.52033648 488.21724479 480.82421875 495.34375 C479.15029992 500.7744753 475.31296808 504.13750048 470.82421875 507.34375 C466.68672054 509.41152109 463.24337204 509.59509918 458.64473152 509.59822559 C457.57154551 509.60303531 457.57154551 509.60303531 456.47667897 509.60794219 C454.07276049 509.61626143 451.66908992 509.61031117 449.26516724 509.60444641 C447.52675012 509.60746626 445.78833434 509.6113549 444.04992092 509.61603898 C439.26728835 509.62635006 434.48473048 509.6241292 429.70209169 509.61985838 C424.54573533 509.61739664 419.38939722 509.62639871 414.23304749 509.63389587 C404.12671511 509.64666252 394.02040928 509.64843393 383.9140702 509.64609561 C375.69635095 509.64431366 367.47863977 509.64605946 359.26092148 509.65032005 C358.09195197 509.65091524 356.92298246 509.65151043 355.71858963 509.65212366 C353.34383226 509.65333541 350.9690749 509.65454954 348.59431754 509.65576603 C326.30719542 509.66665017 304.02008843 509.66447557 281.73296545 509.65838119 C261.35767304 509.65321725 240.98242851 509.6644521 220.60714556 509.68347941 C199.68247069 509.70286968 178.75781845 509.71111133 157.83313453 509.70735615 C146.08714656 509.70544515 134.34119929 509.70792143 122.59521866 509.72207069 C112.58990809 509.73400097 102.58466324 509.73537129 92.57935174 509.72328053 C87.47779472 509.71740201 82.37635782 509.71626375 77.27480888 509.72828293 C72.59627765 509.73917684 67.91796629 509.73599679 63.23944519 509.72202124 C61.5549514 509.71938382 59.87044017 509.72171052 58.18596353 509.72975711 C33.16493683 509.84089711 11.79922318 503.21107416 -6.8046875 485.73828125 C-21.47929476 470.91862021 -31.28675923 452.14322848 -31.30720901 430.95360565 C-31.30926165 430.2275446 -31.31131428 429.50148355 -31.31342912 428.75342065 C-31.31908522 426.31960541 -31.3176436 423.88584701 -31.31622314 421.45202637 C-31.31880755 419.68983378 -31.32182092 417.92764177 -31.32522655 416.16545057 C-31.33329044 411.32211539 -31.33508577 406.47879504 -31.33582401 401.63545394 C-31.33767555 396.41248792 -31.34522322 391.18952957 -31.35195923 385.96656799 C-31.36553712 374.54746417 -31.37156597 363.12836386 -31.37596989 351.70925331 C-31.37873232 344.58163504 -31.38296959 337.45401812 -31.38747406 330.32640076 C-31.3996643 310.59765966 -31.40996522 290.86891965 -31.41334915 271.14017487 C-31.41356872 269.87772496 -31.41378828 268.61527505 -31.4140145 267.31456909 C-31.41423278 266.04908765 -31.41445106 264.78360622 -31.41467595 263.47977686 C-31.41511942 260.9153916 -31.41556598 258.35100635 -31.41601562 255.78662109 C-31.41623705 254.51459546 -31.41645848 253.24256982 -31.41668662 251.93199795 C-31.42063754 231.30496384 -31.43810159 210.67796499 -31.46137515 190.05094451 C-31.48506883 168.88107186 -31.49755004 147.71121694 -31.49871707 126.54133081 C-31.49963476 114.65200027 -31.50541111 102.76271572 -31.52353668 90.87339783 C-31.53891067 80.75330771 -31.54407401 70.6332778 -31.53579858 60.51317823 C-31.53188295 55.34791818 -31.53286622 50.18277949 -31.54685593 45.01753426 C-31.55953963 40.29140835 -31.55844624 35.56549569 -31.54626521 30.83937031 C-31.54429863 29.12747374 -31.54743071 27.41556235 -31.55610958 25.70368665 C-31.5671459 23.380162 -31.55975422 21.05739746 -31.54771805 18.73389435 C-31.54831514 17.44230046 -31.54891222 16.15070657 -31.54952741 14.81997347 C-30.97345345 9.46189349 -28.95535538 5.51516399 -24.80078125 2.09375 C-17.35948088 -3.81597296 -8.42068956 -4.78254174 0 0 Z M216.484375 231.51171875 C210.65985162 237.93925161 210.67620353 245.28125094 210.70396423 253.44892883 C210.70310981 254.36791669 210.70225538 255.28690454 210.70137507 256.23374051 C210.69972765 259.31380581 210.7052296 262.39381667 210.71069336 265.47387695 C210.71097542 267.68148294 210.71081714 269.88908902 210.71025085 272.09669495 C210.7099636 278.09208363 210.71584873 284.08745235 210.72282481 290.08283639 C210.7290703 296.3475562 210.7296631 302.61227646 210.73085022 308.8769989 C210.73360654 319.3926933 210.73985545 329.90838152 210.7487793 340.42407227 C210.75796065 351.25447554 210.76503795 362.08487682 210.76928711 372.9152832 C210.76954983 373.5830566 210.76981256 374.25082999 210.77008324 374.93883894 C210.77138829 378.28891771 210.772652 381.6389965 210.77389514 384.9890753 C210.78435154 412.77397315 210.80269265 440.55885838 210.82421875 468.34375 C234.91421875 468.34375 259.00421875 468.34375 283.82421875 468.34375 C283.82421875 387.49375 283.82421875 306.64375 283.82421875 223.34375 C248.59738411 219.21478737 248.59738411 219.21478737 216.484375 231.51171875 Z M104.82421875 313.34375 C99.87541499 319.07394383 97.69732399 322.54166845 97.70396423 330.17131042 C97.70258957 331.3870726 97.7012149 332.60283478 97.69979858 333.85543823 C97.70333771 335.20465112 97.70697251 336.55386377 97.71069336 337.90307617 C97.7109754 339.32221983 97.71081717 340.74136363 97.71025085 342.1605072 C97.70996353 346.01559125 97.71584981 349.87064429 97.72282481 353.72572112 C97.72906912 357.75361331 97.729663 361.78150618 97.73085022 365.80940247 C97.73396035 373.43790878 97.74216947 381.0664008 97.75219971 388.69490081 C97.76545883 399.00251034 97.77086332 409.31012377 97.77670193 419.61773968 C97.78610956 435.85975384 97.80603061 452.10173781 97.82421875 468.34375 C121.58421875 468.34375 145.34421875 468.34375 169.82421875 468.34375 C169.82421875 415.54375 169.82421875 362.74375 169.82421875 308.34375 C121.15974469 304.24429204 121.15974469 304.24429204 104.82421875 313.34375 Z " fill="#D3FCCC" transform="translate(31.17578125,2.65625)"/>
<path d="M0 0 C0.88633118 0.0034845 1.77266235 0.00696899 2.68585205 0.01055908 C11.55419798 0.07048166 20.40985821 0.33398466 29.26855469 0.74414062 C31.01691106 0.82190393 32.76565335 0.89137306 34.51464844 0.953125 C37.10459865 1.04477086 39.69252129 1.16031311 42.28125 1.28125 C43.0521698 1.30435242 43.8230896 1.32745483 44.61737061 1.35125732 C51.01892335 1.69705509 56.50771276 3.58176387 61.16796875 8.109375 C61.62300781 8.769375 62.07804688 9.429375 62.546875 10.109375 C63.01996094 10.769375 63.49304688 11.429375 63.98046875 12.109375 C68.47148793 20.06578269 65.92473909 30.99428272 64.71875 39.55859375 C64.49992157 41.14387627 64.49992157 41.14387627 64.27667236 42.76118469 C63.96759265 44.97940855 63.65477438 47.19711444 63.33837891 49.41430664 C62.85954046 52.7957066 62.40398031 56.17974182 61.94921875 59.56445312 C61.64464842 61.72936681 61.33870568 63.89408795 61.03125 66.05859375 C60.89877869 67.06290939 60.76630737 68.06722504 60.62982178 69.10197449 C59.6113118 76.00801634 57.94772744 82.39399068 52.171875 86.921875 C46.27810127 91.13171338 41.27022348 91.97304986 34.109375 91.109375 C28.04188298 89.32230063 23.34456588 85.54269209 20.109375 80.109375 C19.39106886 77.66427993 19.21436929 75.68173518 19.109375 73.109375 C14.74853065 75.51028931 11.20143473 78.469175 7.484375 81.734375 C6.23392625 82.8199941 4.9826155 83.90462106 3.73046875 84.98828125 C3.1154248 85.5208252 2.50038086 86.05336914 1.86669922 86.60205078 C-1.40706639 89.4100848 -4.76538 92.11339779 -8.11328125 94.83203125 C-11.23458867 97.39141554 -14.3151253 99.99531291 -17.390625 102.609375 C-22.24016551 106.73045292 -27.14223464 110.77928983 -32.078125 114.796875 C-35.20862166 117.37083892 -38.30234961 119.98506586 -41.390625 122.609375 C-46.24021881 126.73039134 -51.14223306 130.77928854 -56.078125 134.796875 C-59.20862166 137.37083892 -62.30234961 139.98506586 -65.390625 142.609375 C-70.24021881 146.73039134 -75.14223306 150.77928854 -80.078125 154.796875 C-83.20862166 157.37083892 -86.30234961 159.98506586 -89.390625 162.609375 C-94.24021881 166.73039134 -99.14223306 170.77928854 -104.078125 174.796875 C-107.20862166 177.37083892 -110.30234961 179.98506586 -113.390625 182.609375 C-118.24021881 186.73039134 -123.14223306 190.77928854 -128.078125 194.796875 C-131.20862813 197.37084424 -134.30211051 199.9853397 -137.390625 202.609375 C-160.65862656 222.34910267 -160.65862656 222.34910267 -170.890625 223.109375 C-177.52331608 222.5468853 -182.56131074 219.50339243 -187.140625 214.796875 C-190.78897753 209.1940479 -191.10173048 204.19641766 -190.5703125 197.734375 C-188.69824629 190.50432618 -184.39851203 186.32183515 -178.828125 181.734375 C-178.16055176 181.17057129 -177.49297852 180.60676758 -176.80517578 180.02587891 C-174.84349716 178.37475627 -172.87003559 176.73917406 -170.890625 175.109375 C-169.90964844 174.29984375 -168.92867187 173.4903125 -167.91796875 172.65625 C-166.16001333 171.216746 -164.39832651 169.78178601 -162.6328125 168.3515625 C-159.52062352 165.80683817 -156.45336003 163.21319275 -153.390625 160.609375 C-148.54113778 156.48823552 -143.63901377 152.43945888 -138.703125 148.421875 C-135.57262834 145.84791108 -132.47890039 143.23368414 -129.390625 140.609375 C-124.54103119 136.48835866 -119.63901694 132.43946146 -114.703125 128.421875 C-111.57262834 125.84791108 -108.47890039 123.23368414 -105.390625 120.609375 C-100.54103119 116.48835866 -95.63901694 112.43946146 -90.703125 108.421875 C-87.57262834 105.84791108 -84.47890039 103.23368414 -81.390625 100.609375 C-76.54103119 96.48835866 -71.63901694 92.43946146 -66.703125 88.421875 C-63.57262834 85.84791108 -60.47890039 83.23368414 -57.390625 80.609375 C-52.54103119 76.48835866 -47.63901694 72.43946146 -42.703125 68.421875 C-39.57262802 65.84791082 -36.47891222 63.23367076 -33.390625 60.609375 C-28.39978187 56.3686734 -23.35982586 52.19421766 -18.28125 48.05859375 C-15.46624135 45.76334977 -12.67469884 43.44197741 -9.890625 41.109375 C-10.48230469 40.79226562 -11.07398438 40.47515625 -11.68359375 40.1484375 C-18.17976786 36.31219765 -21.60864738 32.35026553 -23.890625 25.109375 C-25.11531344 18.59228296 -23.59651277 12.58094891 -19.890625 7.109375 C-13.64833252 1.11828141 -8.52753409 -0.05607423 0 0 Z " fill="#D3FCCC" transform="translate(269.890625,-0.109375)"/>
</svg>
