<?xml version="1.0" encoding="UTF-8"?>
<svg version="1.1" xmlns="http://www.w3.org/2000/svg" width="512" height="512">
<path d="M0 0 C2.08725669 -0.00435276 4.17451178 -0.00953779 6.26176453 -0.01548767 C11.90651937 -0.0288287 17.55120706 -0.02946176 23.19597459 -0.02692437 C27.91982134 -0.02585125 32.6436547 -0.03074677 37.36749858 -0.03552979 C48.51844684 -0.04660823 59.66936141 -0.04707186 70.8203125 -0.04101562 C82.29750358 -0.03497773 93.77457202 -0.04728607 105.25174218 -0.06858569 C115.12981596 -0.08623895 125.00785082 -0.09219715 134.88593978 -0.08894795 C140.77496948 -0.08714077 146.6639117 -0.08971466 152.55292702 -0.10366249 C158.09423839 -0.11629678 163.6353595 -0.11424395 169.17666817 -0.1012516 C171.20100724 -0.09889837 173.22535995 -0.1015751 175.24968338 -0.10987473 C194.88855826 -0.18453696 213.47810939 1.85358823 228.32885742 16.2746582 C237.90378353 27.10737427 242.51486452 38.04444445 244.32885742 52.2746582 C245.31728638 52.29653198 245.31728638 52.29653198 246.32568359 52.31884766 C266.30835483 52.81261313 284.97489989 53.54507121 300.42260742 68.1418457 C307.34832636 75.89070336 312.50604501 84.20998775 315.32885742 94.2746582 C315.50485472 94.89868113 315.68085201 95.52270406 315.86218256 96.16563678 C316.33537275 98.30410261 316.45309647 100.17176993 316.45190525 102.35884476 C316.4538963 103.16798993 316.45588735 103.97713511 316.45793873 104.81079984 C316.45502589 105.69406658 316.45211305 106.57733332 316.44911194 107.48736572 C316.45039358 108.90131784 316.45039358 108.90131784 316.4517011 110.34383464 C316.45335133 113.50992262 316.44784196 116.6759579 316.44238281 119.84204102 C316.44210082 122.10861205 316.44225892 124.37518317 316.44282532 126.64175415 C316.44311281 132.8024858 316.43722386 138.96319807 316.43025136 145.12392521 C316.42400979 151.55948349 316.42341338 157.99504219 316.42222595 164.43060303 C316.4194687 175.23474504 316.41321797 186.03887908 316.40429688 196.84301758 C316.39511771 207.97127242 316.38803934 219.09952534 316.38378906 230.2277832 C316.38339498 231.25672034 316.38339498 231.25672034 316.38299293 232.30644408 C316.38168789 235.74769792 316.38042418 239.18895177 316.37918103 242.63020563 C316.3688145 271.1783613 316.35112714 299.72650947 316.32885742 328.2746582 C317.84866211 328.22245117 317.84866211 328.22245117 319.39916992 328.16918945 C320.75071572 328.14103225 322.10227961 328.11373417 323.45385742 328.0871582 C324.4515918 328.04945313 324.4515918 328.04945313 325.46948242 328.01098633 C330.2071758 327.94131437 333.314746 328.77987909 337.32885742 331.2746582 C341.8304951 336.26295942 342.49448626 339.40615351 342.53198242 345.95825195 C342.5376825 346.72839127 342.54338257 347.49853058 342.54925537 348.29200745 C342.55871541 349.92870713 342.56524333 351.56542594 342.5690918 353.20214844 C342.57869859 355.67133562 342.60966881 358.13965441 342.64135742 360.60864258 C342.76375547 378.49813742 338.11895491 394.04759613 325.58862305 407.2121582 C311.07757773 421.74294644 293.94032028 426.39126201 273.93525243 426.4130637 C272.40281875 426.41159282 270.87038516 426.41002512 269.33795166 426.40837097 C267.69792845 426.41024047 266.05790569 426.41254173 264.41788363 426.41523629 C259.92129432 426.42134355 255.42472362 426.42122197 250.9281311 426.42004192 C246.07455154 426.41983764 241.22097791 426.42535926 236.36740112 426.43009949 C226.86207374 426.4384007 217.35675256 426.44115409 207.85142186 426.44171187 C200.12383469 426.44218728 192.39624955 426.44424327 184.66866302 426.44741249 C162.75237883 426.45621761 140.83609952 426.46083209 118.91981354 426.46008202 C117.73866521 426.46004206 116.55751688 426.4600021 115.34057617 426.45996094 C114.15798323 426.45992006 112.97539029 426.45987918 111.7569612 426.45983706 C92.59231719 426.45943062 73.42769284 426.46899983 54.26305452 426.4830993 C34.57792589 426.49746726 14.89280684 426.50436926 -4.79232717 426.50350553 C-15.84120212 426.5031737 -26.89005647 426.50591442 -37.9389267 426.51668358 C-47.34622979 426.52579408 -56.75350294 426.5279593 -66.16080853 426.52117416 C-70.95820297 426.51791175 -75.75553997 426.51784222 -80.55292892 426.5265274 C-84.94987761 426.5344056 -89.34672345 426.53294751 -93.74366966 426.52424327 C-95.32909834 426.52271119 -96.91453475 426.52451337 -98.49995431 426.53010335 C-119.14678381 426.59804415 -136.9874245 422.64882423 -152.42114258 408.0246582 C-163.06006158 396.77780098 -169.76047884 382.52419222 -169.90942383 367.0012207 C-169.91749557 366.19985687 -169.92556732 365.39849304 -169.93388367 364.57284546 C-169.94768852 362.88004701 -169.95842671 361.18722115 -169.96630859 359.49438477 C-169.97784122 357.76806449 -169.99831339 356.04178024 -170.02783203 354.31567383 C-170.07058035 351.81477756 -170.08668541 349.31493729 -170.09692383 346.8137207 C-170.11443192 346.0479068 -170.13194 345.2820929 -170.14997864 344.49307251 C-170.1290804 339.29700211 -169.05360962 336.42506429 -165.67114258 332.2746582 C-161.073206 328.23404727 -156.88123415 328.14057212 -150.98364258 328.2121582 C-150.28174805 328.21666992 -149.57985352 328.22118164 -148.85668945 328.22583008 C-147.1281372 328.23758894 -145.39962892 328.25552367 -143.67114258 328.2746582 C-143.67482975 327.10128308 -143.67851692 325.92790796 -143.68231583 324.71897602 C-143.76906843 296.82487785 -143.83496516 268.93079024 -143.8754039 241.03658532 C-143.88040633 237.59844597 -143.88558366 234.1603069 -143.89086914 230.72216797 C-143.89191838 230.03773661 -143.89296762 229.35330524 -143.89404866 228.64813354 C-143.91142321 217.58617818 -143.94294449 206.52430652 -143.97975376 195.46240071 C-144.01724559 184.10006458 -144.03909665 172.73779024 -144.04749656 161.37538832 C-144.05270158 154.99824586 -144.06489625 148.62129283 -144.09406281 142.2442112 C-144.12132186 136.23520063 -144.12956631 130.22645658 -144.1235733 124.21739006 C-144.12466885 122.01846999 -144.13255975 119.81954051 -144.14796448 117.62067413 C-144.25968624 100.84291839 -142.88802825 88.24147774 -132.67114258 74.2746582 C-132.19805664 73.61723633 -131.7249707 72.95981445 -131.23754883 72.2824707 C-122.66852764 61.3587893 -109.14101084 55.22069358 -95.67114258 53.2746582 C-91.46505596 52.92997969 -87.2639159 52.77265524 -83.04614258 52.6496582 C-81.39678711 52.59165039 -81.39678711 52.59165039 -79.71411133 52.5324707 C-77.03327799 52.43922433 -74.35243368 52.35342553 -71.67114258 52.2746582 C-71.51838867 51.07788452 -71.51838867 51.07788452 -71.36254883 49.85693359 C-69.13158846 33.18079233 -61.35229496 21.43631352 -48.60864258 10.7746582 C-34.09653686 -0.27187003 -17.35741783 -0.02396112 0 0 Z M-35.67114258 41.2746582 C-39.50259864 47.21009302 -40.79160202 52.53388805 -40.8183136 59.5660553 C-40.8254689 60.85985107 -40.83262421 62.15364685 -40.83999634 63.48664856 C-40.84283647 64.91867041 -40.84554821 66.35069253 -40.84814453 67.78271484 C-40.85441194 69.29253291 -40.86105899 70.80234945 -40.86805725 72.31216431 C-40.88907299 77.26970348 -40.89945963 82.22724287 -40.90942383 87.18481445 C-40.91347279 88.89456129 -40.91758975 90.60430797 -40.92177391 92.31405449 C-40.94082278 100.35033084 -40.95505255 108.38659805 -40.96338588 116.42289263 C-40.97314733 125.68238357 -40.99943949 134.94163476 -41.03988677 144.20104128 C-41.07011346 151.36811553 -41.08486109 158.53512133 -41.08816689 165.70225805 C-41.09051056 169.9777872 -41.09938103 174.25306014 -41.12462807 178.52852058 C-41.14802786 182.55627894 -41.15209467 186.5836146 -41.14186668 190.61142349 C-41.14137404 192.08231073 -41.14761376 193.55321963 -41.16142273 195.02404213 C-41.25322873 205.39027727 -40.59011949 215.03288963 -33.60864258 223.2121582 C-25.11140957 230.68038034 -14.53080028 230.83929212 -3.80180931 230.76051331 C-1.34993838 230.74303995 1.10077564 230.75086866 3.55265808 230.76477051 C8.7489733 230.78992391 13.94500627 230.78463039 19.14135742 230.7746582 C25.18587479 230.76310107 31.22982157 230.76431967 37.2742672 230.79872131 C39.68193921 230.80578657 42.08869278 230.78918502 44.49629211 230.77160645 C45.97669971 230.77731487 47.45710358 230.78413242 48.9375 230.79223633 C50.22336502 230.78905396 51.50923004 230.78587158 52.83406067 230.78259277 C63.50043781 232.28441271 71.69106543 244.51284651 78.32885742 252.2746582 C79.6397157 253.77609313 80.95218018 255.27612744 82.26635742 256.7746582 C83.28719076 257.94132487 84.30802409 259.10799154 85.32885742 260.2746582 C88.34393539 258.9482827 90.12731873 257.62951503 92.20385742 255.0871582 C95.83704249 250.8077233 99.58631425 246.65102278 103.39135742 242.5246582 C103.98094238 241.874729 104.57052734 241.2247998 105.17797852 240.55517578 C105.75499512 239.93151123 106.33201172 239.30784668 106.92651367 238.6652832 C107.43706299 238.10873047 107.9476123 237.55217773 108.47363281 236.97875977 C113.40842094 232.44595004 116.98607749 230.77557009 123.72021484 230.79223633 C124.43493958 230.78832382 125.14966431 230.78441132 125.88604736 230.78038025 C127.42959402 230.77442836 128.97319711 230.77753344 130.5167141 230.7888031 C132.96956254 230.80615751 135.42124166 230.79850621 137.87409973 230.7845459 C143.96817316 230.75498383 150.06201975 230.76802907 156.15612793 230.77972412 C161.30600969 230.78797369 166.45537879 230.77979383 171.60518837 230.75059509 C174.00431572 230.7435693 176.40250611 230.76009464 178.80155945 230.77770996 C188.80792201 230.77626913 198.41160222 230.11570629 206.26635742 223.2121582 C213.74214938 214.45698674 213.91344436 203.97025425 213.84643555 192.97192383 C213.8518674 191.461068 213.85899598 189.95021749 213.86767578 188.43937683 C213.88578602 184.36697129 213.87889304 180.29497474 213.86615944 176.22256279 C213.85596749 171.94226936 213.8654422 167.66200881 213.8717041 163.38171387 C213.87896259 156.19638847 213.86944024 149.01122803 213.8503418 141.82592773 C213.82857647 133.54209564 213.83562912 125.25865748 213.85764742 116.97483492 C213.8758529 109.83731121 213.87833468 102.69990546 213.86789274 95.56236601 C213.86168599 91.31045808 213.86074389 87.05873475 213.8740387 82.80683899 C213.88567194 78.80765334 213.87743674 74.80897104 213.85446167 70.80983925 C213.84921416 69.3502568 213.85061973 67.89063131 213.85951233 66.43106651 C213.91702064 56.02540356 213.31276431 46.2382202 205.95385742 38.2746582 C198.88494104 31.96096793 191.98344493 31.1242418 182.81573486 31.13421631 C181.53253282 31.12975963 181.53253282 31.12975963 180.22340751 31.12521291 C177.3578314 31.11654367 174.49229716 31.11501916 171.62670898 31.11352539 C169.57163402 31.10889597 167.51655992 31.10387115 165.46148682 31.09848022 C159.87871234 31.08536642 154.29594989 31.07891328 148.71316242 31.07446957 C145.2243388 31.07153728 141.73551845 31.06743219 138.24669647 31.06296539 C127.32823841 31.04929334 116.40978784 31.03962517 105.4913218 31.0357635 C92.89256172 31.0312829 80.29391013 31.01373361 67.69518304 30.98476291 C57.95319403 30.96313971 48.21123553 30.95305888 38.46922278 30.95172238 C32.65235456 30.95067485 26.83558836 30.94477779 21.01874542 30.92690277 C15.54566367 30.91041108 10.07276054 30.90827201 4.59966278 30.91704178 C2.59418764 30.91781155 0.58870284 30.91347735 -1.41674805 30.90358353 C-4.16140523 30.89084008 -6.90543203 30.89675384 -9.65008545 30.90716553 C-10.43755842 30.89910912 -11.22503139 30.89105272 -12.03636718 30.88275218 C-21.64313273 30.96757455 -29.29222217 34.0009571 -35.67114258 41.2746582 Z M-107.67114258 93.2746582 C-112.51473928 99.04971581 -112.96063209 104.18652938 -112.91165161 111.45576477 C-112.91336365 112.38068726 -112.91507568 113.30560974 -112.9168396 114.25856018 C-112.92015083 117.36857806 -112.9091015 120.4783807 -112.89819336 123.58837891 C-112.89758074 125.85176938 -112.89784759 128.11516023 -112.89892387 130.37855053 C-112.89937575 136.44471871 -112.88777646 142.51080812 -112.873703 148.5769577 C-112.86232075 154.26733145 -112.86177718 159.95768595 -112.86035156 165.64807129 C-112.84985315 182.29444404 -112.82193089 198.94080211 -112.79614258 215.5871582 C-112.75489258 252.7740332 -112.71364258 289.9609082 -112.67114258 328.2746582 C18.66885742 328.2746582 150.00885742 328.2746582 285.32885742 328.2746582 C285.41135742 291.1496582 285.49385742 254.0246582 285.57885742 215.7746582 C285.61527344 204.04870117 285.65168945 192.32274414 285.68920898 180.24145508 C285.70258602 169.7381005 285.70258602 169.7381005 285.71063232 159.23474121 C285.71436166 154.55334911 285.72936239 149.87213811 285.75115967 145.1907959 C285.77859699 139.21904527 285.78682189 133.24755798 285.78114653 127.27575016 C285.78233327 125.08436644 285.79026471 122.8929735 285.80571795 120.70164394 C285.8256355 117.73960636 285.82081071 114.77858972 285.80987549 111.81652832 C285.82152615 110.96072426 285.8331768 110.1049202 285.84518051 109.22318268 C285.7777921 102.42447393 283.88325012 97.25039403 279.43432617 92.06762695 C278.80139648 91.53782227 278.1684668 91.00801758 277.51635742 90.4621582 C276.89116211 89.91946289 276.2659668 89.37676758 275.62182617 88.81762695 C268.71080604 84.16711085 263.04644005 83.88023028 254.89135742 84.0871582 C253.36478516 84.10746094 253.36478516 84.10746094 251.80737305 84.12817383 C249.31397528 84.16329211 246.8217023 84.21247261 244.32885742 84.2746582 C244.32554728 84.90781322 244.32223713 85.54096825 244.31882668 86.19330978 C244.23738158 101.64456745 244.14521999 117.09571919 244.04133034 132.54684067 C243.99134354 140.01908093 243.94489983 147.49131098 243.90698242 154.96362305 C243.87390002 161.48129905 243.83398092 167.99889242 243.78606737 174.51647687 C243.76096269 177.96311616 243.73913548 181.40970178 243.72551346 184.85640717 C243.71012713 188.71695173 243.67946775 192.57729804 243.64770508 196.43774414 C243.6444648 198.12629265 243.6444648 198.12629265 243.64115906 199.84895325 C243.48237594 215.0433589 240.88536393 228.64021473 230.78198242 240.43481445 C229.12575586 242.3175651 229.12575586 242.3175651 228.32885742 245.2746582 C227.0230364 245.99372264 225.68333541 246.65207358 224.32885742 247.2746582 C222.7743767 248.38188482 221.23363969 249.50855026 219.70385742 250.6496582 C207.32825664 259.35238332 194.12217267 260.6004496 179.29744911 260.36566162 C176.47037842 260.32621539 173.64363206 260.32489427 170.81632519 260.32086182 C165.58345566 260.31319592 160.35182158 260.29122429 155.11962891 260.20288086 C151.44812157 260.14236063 147.77923327 260.13114902 144.10732079 260.15158081 C142.72187145 260.15031401 141.33630794 260.13131122 139.95137978 260.09329224 C131.68849621 259.84732308 131.68849621 259.84732308 124.52886963 263.4569397 C122.25949981 265.96351581 120.28198123 268.51836245 118.32885742 271.2746582 C117.30919944 272.424968 116.2748344 273.56287215 115.21166992 274.6730957 C114.75542236 275.16640381 114.2991748 275.65971191 113.82910156 276.16796875 C112.86778538 277.20369179 111.90599544 278.23897522 110.94384766 279.27392578 C108.36198705 282.05605053 105.80482868 284.85416957 103.29370117 287.70043945 C102.80562988 288.24845215 102.31755859 288.79646484 101.81469727 289.36108398 C100.47100396 290.87256609 99.13597678 292.39173948 97.80151367 293.91137695 C94.11012715 297.4394794 91.43293133 298.18703329 86.39135742 298.5871582 C79.60324638 298.35834547 75.59515827 294.91385909 71.08666992 290.20043945 C68.86609326 287.76767436 66.70728626 285.28722536 64.55932617 282.7902832 C60.86875648 278.62788937 57.03723835 274.59567233 53.21533203 270.55395508 C52.62888916 269.93069336 52.04244629 269.30743164 51.43823242 268.6652832 C50.91197266 268.10873047 50.38571289 267.55217773 49.84350586 266.97875977 C48.32885742 265.2746582 48.32885742 265.2746582 47.11650085 263.20028687 C45.44274732 261.01264741 45.44274732 261.01264741 42.58119202 260.76913452 C41.46933029 260.76628448 40.35746857 260.76343445 39.21191406 260.76049805 C37.94952408 260.7472348 36.68713409 260.73397156 35.38648987 260.7203064 C34.00399737 260.72528431 32.62150531 260.7303839 31.23901367 260.7355957 C29.81471756 260.72568212 28.39043426 260.71373835 26.96617126 260.69985962 C23.20765784 260.66744253 19.44943532 260.65710473 15.6907959 260.65301514 C9.7078517 260.64428068 3.72514815 260.60822974 -2.25760078 260.56084061 C-4.33124729 260.54842348 -6.40458074 260.54900036 -8.47825623 260.55111694 C-24.35667352 260.46551099 -38.44610743 258.33707192 -50.83129883 247.7277832 C-52.71404947 246.07155665 -52.71404947 246.07155665 -55.67114258 245.2746582 C-56.39020702 243.96883718 -57.04855796 242.62913619 -57.67114258 241.2746582 C-58.7783692 239.72017748 -59.90503464 238.17944047 -61.04614258 236.6496582 C-69.66317006 224.39592266 -70.96185417 211.09978084 -70.98999023 196.43774414 C-71.00003586 195.2167955 -71.01008148 193.99584686 -71.02043152 192.73789978 C-71.04579882 189.430828 -71.06278915 186.12392322 -71.07585955 182.8167944 C-71.09162503 179.34544585 -71.11837146 175.87418114 -71.14389038 172.40289307 C-71.19044305 165.84782903 -71.22729992 159.29274881 -71.26056325 152.73760533 C-71.29895213 145.26704217 -71.34831761 137.79656369 -71.39854741 130.32607222 C-71.50151699 114.97566233 -71.59088963 99.6252047 -71.67114258 84.2746582 C-75.21404129 84.2162543 -78.7568149 84.18092655 -82.30004883 84.1496582 C-83.79936951 84.12452148 -83.79936951 84.12452148 -85.32897949 84.09887695 C-95.13681331 84.03393785 -100.9200915 86.07353705 -107.67114258 93.2746582 Z M-139.67114258 359.2746582 C-138.70387415 370.88187934 -137.47567171 379.19188488 -128.85864258 387.2746582 C-121.29359763 393.21655174 -113.44298802 395.39611826 -103.93059254 395.40608597 C-103.26260005 395.4081386 -102.59460756 395.41019124 -101.90637287 395.41230607 C-99.66402922 395.41796853 -97.42174713 395.41651975 -95.17939758 395.4151001 C-93.55703717 395.41768417 -91.9346774 395.42069744 -90.3123185 395.4241035 C-85.85069811 395.43217185 -81.38909381 395.43396298 -76.92746699 395.43470097 C-72.11681666 395.4365518 -67.30617468 395.44409929 -62.49552917 395.45083618 C-51.97482933 395.46441882 -41.4541333 395.4704441 -30.93342614 395.47484684 C-24.3644269 395.47760935 -17.79542914 395.48184672 -11.22643089 395.48635101 C6.96073025 395.49854354 25.14789021 395.50884292 43.33505535 395.5122261 C44.49910296 395.51244567 45.66315057 395.51266524 46.86247234 395.51289146 C48.02930676 395.51310973 49.19614117 395.51332801 50.39833421 395.5135529 C52.76278921 395.51399637 55.12724421 395.51444293 57.49169922 395.51489258 C58.66455083 395.51511401 59.83740244 395.51533544 61.045795 395.51556358 C80.05032697 395.51951162 99.0548206 395.53696591 118.05933776 395.5602521 C137.57033997 395.58396594 157.08132295 395.59642797 176.59233981 395.59759402 C187.54731097 395.59851076 198.50223217 395.60426275 209.45718956 395.62241364 C218.78558053 395.63781504 228.11390611 395.64293483 237.44230738 395.63467553 C242.20098143 395.6307692 246.95952377 395.63169787 251.71818161 395.64573288 C256.07756195 395.6584726 260.43671163 395.65727364 264.79609165 395.64514217 C266.37013613 395.6431853 267.94419696 395.64626314 269.51821848 395.65498653 C281.97221775 395.71961817 292.54882714 394.59330465 302.32885742 386.2746582 C310.1129404 377.91271753 311.35871362 370.91638378 312.32885742 359.2746582 C163.16885742 359.2746582 14.00885742 359.2746582 -139.67114258 359.2746582 Z " fill="#000000" transform="translate(169.671142578125,42.725341796875)"/>
<path d="M0 0 C3.5677811 2.35149209 5.84221079 4.99692157 7.75 8.8125 C7.86254964 11.02689809 7.90938249 13.24472758 7.92700195 15.46191406 C7.93357315 16.14507187 7.94014435 16.82822968 7.94691467 17.53208923 C7.96665625 19.79743558 7.97831335 22.06271555 7.98828125 24.328125 C7.99235678 25.10211388 7.9964323 25.87610275 8.00063133 26.67354584 C8.02149777 30.77178176 8.03579583 34.86998415 8.04516602 38.96826172 C8.05621951 43.19627411 8.09060497 47.4237586 8.13033772 51.65158463 C8.1565195 54.90646322 8.1648593 58.16121647 8.16844749 61.4161911 C8.17331106 62.9742768 8.1849186 64.532357 8.20348549 66.09033966 C8.22790711 68.27581703 8.22690711 70.45993497 8.2199707 72.64550781 C8.22877007 74.50843475 8.22877007 74.50843475 8.23774719 76.40899658 C7.52072457 81.41238559 5.33260639 84.58331638 1.37109375 87.66015625 C-3.37829103 89.74818681 -8.17248151 89.43170957 -13.25 88.8125 C-17.85339239 86.63194571 -20.02652951 84.33478816 -22.25 79.8125 C-22.63768005 76.5561676 -22.63768005 76.5561676 -22.65405273 72.82250977 C-22.66091599 72.13891388 -22.66777924 71.45531799 -22.67485046 70.75100708 C-22.69308202 68.50175938 -22.68928641 66.25321166 -22.68359375 64.00390625 C-22.68815744 62.43358637 -22.69346357 60.86326849 -22.69947815 59.29295349 C-22.70840214 56.00535965 -22.70599449 52.71800882 -22.69604492 49.43041992 C-22.68455787 45.22595605 -22.7047655 41.02233238 -22.73396206 36.81797886 C-22.75234522 33.57592985 -22.75202741 30.3340814 -22.74632454 27.09199333 C-22.74617157 25.54230509 -22.75219562 23.99260303 -22.76461601 22.44296455 C-22.77956476 20.27207505 -22.76882296 18.1027274 -22.75170898 15.93188477 C-22.75154282 14.69898209 -22.75137665 13.46607941 -22.75120544 12.19581604 C-22.03211215 7.34167908 -19.84002058 4.20979081 -16.1875 1 C-11.04600443 -2.15123922 -5.48396699 -2.00375717 0 0 Z " fill="#000000" transform="translate(263.25,154.1875)"/>
<path d="M0 0 C4.23766694 5.11012778 4.55898098 8.11924991 4.44140625 14.609375 C4.01731976 18.5675156 2.85434941 20.68561819 0.125 23.5625 C-5.31639076 27.45187897 -10.39350609 27.35292609 -16.875 26.5625 C-21.37897908 24.42903622 -23.85982656 22.12315568 -25.875 17.5625 C-27.14292733 12.29572493 -26.92264782 8.58854465 -24.875 3.5625 C-17.85980429 -4.53195659 -8.63469513 -7.32071978 0 0 Z " fill="#000000" transform="translate(266.875,107.4375)"/>
</svg>
