<?xml version="1.0" encoding="UTF-8"?>
<svg version="1.1" xmlns="http://www.w3.org/2000/svg" width="512" height="512">
<path d="M0 0 C4.02672472 1.72688204 7.73721369 3.88881811 11.5 6.125 C12.59513916 6.75736572 13.69027832 7.38973145 14.81860352 8.04125977 C18.22208668 10.01138905 21.61139868 12.00440795 25 14 C27.01867116 15.17465641 29.0381703 16.34789137 31.05859375 17.51953125 C35.0142823 19.81679524 38.96425539 22.12346649 42.91015625 24.4375 C49.21570419 28.1321331 55.54294436 31.78852681 61.875 35.4375 C62.95515381 36.06003662 64.03530762 36.68257324 65.14819336 37.32397461 C67.33796334 38.58576826 69.52782355 39.84740534 71.71777344 41.10888672 C77.14659942 44.23680148 82.57319281 47.36858448 88 50.5 C90.16665583 51.75001879 92.3333225 53.00001878 94.5 54.25 C107.5 61.75 120.5 69.25 133.5 76.75 C134.5732251 77.36915283 135.6464502 77.98830566 136.75219727 78.6262207 C138.91159395 79.8720577 141.07093669 81.11798818 143.23022461 82.36401367 C148.75767597 85.55348953 154.28615121 88.74116885 159.81640625 91.92578125 C165.23776945 95.04797518 170.65531554 98.17670536 176.07080078 101.30908203 C178.82375124 102.89825813 181.5813302 104.47910128 184.33984375 106.05859375 C185.89343973 106.95536448 187.44684087 107.85247288 189 108.75 C189.69424072 109.14421143 190.38848145 109.53842285 191.10375977 109.94458008 C194.22144787 111.7569094 195.96425541 112.94638312 198 116 C198.22260666 118.72063732 198.22260666 118.72063732 198.18426514 122.07743835 C198.17519638 123.34895248 198.16612762 124.62046661 198.15678406 125.93051147 C198.13682069 127.34259134 198.11678341 128.75467017 198.09667969 130.16674805 C198.0830604 131.65171904 198.07051853 133.13670026 198.05897522 134.62168884 C198.03317692 137.82199893 198.00244178 141.0222121 197.96874237 144.22244835 C197.91819704 149.28659922 197.89550449 154.3506275 197.87994385 159.41499329 C197.87586789 160.69721339 197.87586789 160.69721339 197.87170959 162.00533694 C197.86627633 163.75348061 197.86094117 165.50162459 197.85570192 167.24976885 C197.81996536 179.04041785 197.76913391 190.82997367 197.62646484 202.61987305 C197.53043536 210.57228933 197.48407417 218.52328206 197.49506879 226.47629386 C197.4989385 230.68430203 197.4776261 234.88879059 197.39571381 239.09607506 C197.31902504 243.0579372 197.30812491 247.01463458 197.34667778 250.97699928 C197.3492423 252.42672037 197.32802036 253.87671864 197.28066444 255.32566833 C197.13995113 259.88332386 197.2681526 263.75600999 199 268 C202.34829168 270.81131564 205.56691925 272.6604525 209.53162003 274.43510151 C214.32883234 276.59955591 218.0248519 279.60622639 222 283 C222.79792969 283.65355469 223.59585937 284.30710937 224.41796875 284.98046875 C243.41471625 301.14979337 254.70934011 324.45334598 258 349 C258.28167913 353.08819908 258.3346835 357.15302427 258.3125 361.25 C258.30686035 362.34828125 258.3012207 363.4465625 258.29541016 364.578125 C258.16886161 373.07817812 257.39398555 380.8024131 255 389 C254.80664062 389.66902344 254.61328125 390.33804687 254.4140625 391.02734375 C249.75005075 406.71800057 241.92525377 419.81262305 231 432 C230.38898438 432.69351562 229.77796875 433.38703125 229.1484375 434.1015625 C215.92280419 448.22766446 197.62259552 457.40481409 179 462 C177.66582031 462.33644531 177.66582031 462.33644531 176.3046875 462.6796875 C150.15845881 468.11750714 121.80846895 462.37649163 99.4375 448.0625 C93.90748193 444.12130163 88.88710675 439.706407 84 435 C83.24332031 434.27167969 82.48664063 433.54335938 81.70703125 432.79296875 C78.52917891 429.67300079 75.61113867 426.6172655 73 423 C69.21481268 424.4160506 65.80250679 426.15421065 62.30078125 428.16796875 C61.18654785 428.80669922 60.07231445 429.44542969 58.92431641 430.10351562 C57.72033346 430.79810056 56.51639576 431.49276396 55.3125 432.1875 C54.0644436 432.90456364 52.81623165 433.62135663 51.56787109 434.33789062 C47.70932579 436.55411206 43.85449442 438.77674315 40 441 C38.78990458 441.69747745 37.57978154 442.39490697 36.36962891 443.09228516 C34.06252824 444.42187239 31.75588112 445.752236 29.44946289 447.08300781 C27.25043943 448.35103544 25.05042144 449.61734006 22.84936523 450.88183594 C18.38665826 453.44857638 13.93390627 456.02039036 9.546875 458.71484375 C8.90991699 459.09962891 8.27295898 459.48441406 7.61669922 459.88085938 C6.04647382 460.83347159 4.48734825 461.80432225 2.9296875 462.77734375 C-0.906232 464.37820082 -3.96606783 464.85358039 -8 464 C-12.03383708 462.29133251 -15.7381195 460.11064358 -19.5 457.875 C-20.59513916 457.24263428 -21.69027832 456.61026855 -22.81860352 455.95874023 C-26.22208668 453.98861095 -29.61139868 451.99559205 -33 450 C-35.01867116 448.82534359 -37.0381703 447.65210863 -39.05859375 446.48046875 C-43.0142823 444.18320476 -46.96425539 441.87653351 -50.91015625 439.5625 C-57.21570419 435.8678669 -63.54294436 432.21147319 -69.875 428.5625 C-70.95515381 427.93996338 -72.03530762 427.31742676 -73.14819336 426.67602539 C-75.33796334 425.41423174 -77.52782355 424.15259466 -79.71777344 422.89111328 C-86.22871257 419.13971976 -92.73663194 415.38309006 -99.24511719 411.62744141 C-104.68585336 408.48817754 -110.12731477 405.35018503 -115.5703125 402.21484375 C-126.02206156 396.19252696 -136.46303139 390.15336763 -146.875 384.0625 C-155.0947848 379.25444292 -163.3451851 374.50329065 -171.61804199 369.78741455 C-175.69454848 367.46308108 -179.76844823 365.13418402 -183.84228516 362.80517578 C-185.84661768 361.65935587 -187.85144274 360.51439678 -189.85693359 359.37060547 C-192.28387665 357.98345823 -194.70540393 356.58741105 -197.125 355.1875 C-197.81134521 354.79723633 -198.49769043 354.40697266 -199.20483398 354.00488281 C-202.29167056 352.20634905 -203.98177221 351.02734168 -206 348 C-206.20098009 344.92542583 -206.2824952 341.94079843 -206.27415466 338.86526489 C-206.27939134 337.9188453 -206.28462802 336.97242571 -206.29002339 335.99732673 C-206.30507766 332.81214044 -206.30572973 329.62711402 -206.30639648 326.44189453 C-206.31401429 324.16387662 -206.32244112 321.88586128 -206.33161926 319.60784912 C-206.35360779 313.40953669 -206.36236895 307.21127361 -206.36744571 301.01292658 C-206.37108396 297.14322349 -206.37732122 293.27353343 -206.3844471 289.4038353 C-206.40390721 278.69106943 -206.42041759 267.97831903 -206.42332363 257.26553535 C-206.4235112 256.57991272 -206.42369877 255.89429008 -206.42389202 255.187891 C-206.42425828 253.79795194 -206.42462198 252.40801288 -206.42498314 251.01807381 C-206.42516595 250.32810067 -206.42534876 249.63812752 -206.42553711 248.92724609 C-206.42571766 248.23643152 -206.42589821 247.54561695 -206.42608423 246.83386861 C-206.42962674 235.63732704 -206.45665371 224.44097769 -206.494035 213.2445028 C-206.53210111 201.7510093 -206.55103972 190.25763754 -206.55178314 178.76407707 C-206.55257762 172.31008583 -206.56139456 165.85634254 -206.58978081 159.4024086 C-206.61587625 153.33339521 -206.61821412 147.26483683 -206.60212517 141.19579315 C-206.60030392 138.96610145 -206.60706186 136.73638409 -206.62294388 134.5067482 C-206.64328032 131.46685532 -206.6329253 128.4285731 -206.61473083 125.38870239 C-206.6279308 124.50261295 -206.64113077 123.61652352 -206.65473074 122.70358288 C-206.59397281 118.27106567 -206.45011665 116.55864968 -203.57652378 112.99217033 C-201.5463558 111.42244276 -199.67919767 110.01021095 -197.41796875 108.81640625 C-196.74652832 108.45401855 -196.07508789 108.09163086 -195.38330078 107.71826172 C-194.65868652 107.33686035 -193.93407227 106.95545898 -193.1875 106.5625 C-191.56246386 105.683459 -189.93883709 104.80180907 -188.31640625 103.91796875 C-187.45289551 103.44794434 -186.58938477 102.97791992 -185.69970703 102.49365234 C-180.95950317 99.87106533 -176.29558229 97.11906828 -171.625 94.375 C-162.78306525 89.19106094 -153.90577561 84.07311692 -145 79 C-135.27856294 73.46048161 -125.59104683 67.86624806 -115.93310547 62.21655273 C-105.40915375 56.06233258 -94.84619863 49.97630004 -84.28222656 43.89111328 C-78.85340055 40.7631985 -73.42682751 37.63138034 -68 34.5 C-65.83984643 33.25390161 -63.67969017 32.00780786 -61.51953125 30.76171875 C-56.00913792 27.58274127 -50.49995392 24.40167581 -44.99169922 21.21899414 C-42.80849284 19.95930309 -40.62394459 18.70193449 -38.43798828 17.44702148 C-33.25787373 14.47199308 -28.09911307 11.47039456 -22.98046875 8.390625 C-22.03276611 7.82819092 -21.08506348 7.26575684 -20.10864258 6.6862793 C-18.34612131 5.6393445 -16.59133318 4.57922492 -14.84643555 3.50317383 C-10.00295921 0.64943385 -5.69803075 -1.45956556 0 0 Z M-9.96875 20.75390625 C-11.00161133 21.35348145 -12.03447266 21.95305664 -13.09863281 22.57080078 C-14.22108398 23.22806152 -15.34353516 23.88532227 -16.5 24.5625 C-17.67259414 25.24507132 -18.84544976 25.92719363 -20.01855469 26.60888672 C-22.4619093 28.02910057 -24.90411514 29.45126319 -27.34570312 30.87451172 C-31.89116755 33.52152146 -36.4519785 36.14171452 -41.01220703 38.76318359 C-53.73293965 46.07794056 -66.38681488 53.50145953 -79 61 C-75.36695814 65.0642957 -71.03353822 67.77571887 -66.49609375 70.71484375 C-65.21600182 71.55294334 -65.21600182 71.55294334 -63.91004944 72.40797424 C-62.05995611 73.61897859 -60.20853934 74.82796296 -58.35595703 76.03515625 C-53.34324186 79.30260452 -48.34140123 82.58660047 -43.33984375 85.87109375 C-42.30914764 86.54768036 -41.27845154 87.22426697 -40.21652222 87.9213562 C-29.91754455 94.6923937 -19.70363794 101.58648141 -9.5 108.5 C6.16347816 119.10739929 21.91551692 129.57129136 37.72668457 139.9571228 C53.25297922 150.15772958 68.67958187 160.49268663 84 171 C91.90535539 167.15618294 99.56508071 163.04462732 107.125 158.5625 C109.23402286 157.32231764 111.34341061 156.08275562 113.453125 154.84375 C114.53142578 154.20953125 115.60972656 153.5753125 116.72070312 152.921875 C122.08994724 149.77515897 127.48207737 146.66840583 132.875 143.5625 C133.93525391 142.95148438 134.99550781 142.34046875 136.08789062 141.7109375 C138.25966072 140.45945335 140.43153685 139.20815319 142.60351562 137.95703125 C148.02446492 134.83351705 153.44336866 131.70645884 158.86236572 128.57955933 C161.65034759 126.97086318 164.43846015 125.36239358 167.2265625 123.75390625 C168.61222412 122.95448608 168.61222412 122.95448608 170.02587891 122.13891602 C170.67733887 121.76307373 171.32879883 121.38723145 172 121 C172 120.34 172 119.68 172 119 C170.93193115 118.39079712 170.93193115 118.39079712 169.84228516 117.76928711 C153.61238092 108.50970237 137.40519854 99.21224977 121.2265625 89.86328125 C117.96475993 87.9796495 114.70138156 86.09877679 111.4375 84.21875 C100.98287049 78.19560261 90.53951558 72.15477555 80.125 66.0625 C70.85733917 60.64215502 61.54640471 55.30059615 52.21859741 49.98480225 C43.93308308 45.26181284 35.67161899 40.49971658 27.4375 35.6875 C26.46603027 35.12015137 25.49456055 34.55280273 24.49365234 33.96826172 C20.711608 31.75827582 16.93050782 29.54674718 13.15380859 27.32763672 C10.47960871 25.75652679 7.80253422 24.19041837 5.125 22.625 C4.32763428 22.15408936 3.53026855 21.68317871 2.70874023 21.19799805 C-3.07866096 17.82185352 -4.27198547 17.42962102 -9.96875 20.75390625 Z M-101.53125 73.53515625 C-102.47339355 74.08937256 -103.41553711 74.64358887 -104.38623047 75.21459961 C-105.92754639 76.1293103 -105.92754639 76.1293103 -107.5 77.0625 C-109.70016001 78.35738411 -111.90069338 79.65163401 -114.1015625 80.9453125 C-114.9548967 81.44788826 -114.9548967 81.44788826 -115.82546997 81.96061707 C-121.82071638 85.48989201 -127.84601717 88.96628136 -133.875 92.4375 C-136.03515634 93.68229152 -138.19531258 94.92708319 -140.35546875 96.171875 C-141.43747559 96.79513672 -142.51948242 97.41839844 -143.63427734 98.06054688 C-147.1489325 100.08582038 -150.66255469 102.11287479 -154.17578125 104.140625 C-154.76593018 104.48122452 -155.3560791 104.82182404 -155.96411133 105.17274475 C-158.79692756 106.80769907 -161.62969 108.44274655 -164.46240234 110.07788086 C-169.63541404 113.06287833 -174.81129233 116.04236324 -180 119 C-180 119.66 -180 120.32 -180 121 C-179.2879541 121.40613525 -178.5759082 121.81227051 -177.84228516 122.23071289 C-161.60954545 131.49191534 -145.39940195 140.7907986 -129.21777344 150.14111328 C-123.81329355 153.26324605 -118.40652588 156.38141204 -113 159.5 C-110.8333225 160.74998122 -108.66665583 161.99998121 -106.5 163.25 C-105.4275 163.86875 -104.355 164.4875 -103.25 165.125 C-100 167 -96.75 168.875 -93.5 170.75 C-92.42733887 171.36883057 -91.35467773 171.98766113 -90.24951172 172.62524414 C-88.08442929 173.87435518 -85.91939018 175.12354129 -83.75439453 176.37280273 C-78.31384294 179.51202309 -72.87252784 182.64990563 -67.4296875 185.78515625 C-57.8097293 191.3280607 -48.19331407 196.87645835 -38.60522461 202.47436523 C-36.60082341 203.64406835 -34.59515574 204.81160436 -32.58813477 205.97680664 C-27.84545534 208.73347665 -23.1286512 211.52132488 -18.453125 214.390625 C-17.58357178 214.91624023 -16.71401855 215.44185547 -15.81811523 215.98339844 C-14.19390455 216.96650248 -12.57814895 217.9637684 -10.97290039 218.97753906 C-6.98828494 221.50957943 -6.98828494 221.50957943 -2.46875 221.546875 C-1.6540625 221.03640625 -0.839375 220.5259375 0 220 C1.1918567 219.36572796 2.38612172 218.73597201 3.58203125 218.109375 C4.99434943 217.3268057 6.40435157 216.54004769 7.8125 215.75 C8.59238281 215.31453857 9.37226563 214.87907715 10.17578125 214.43041992 C18.6994622 209.64667046 27.12879591 204.70169963 35.5625 199.76171875 C42.52457848 195.68643494 49.51045798 191.65292284 56.5 187.625 C57.08096436 187.2901358 57.66192871 186.95527161 58.26049805 186.61026001 C61.50653751 184.73937204 64.75304186 182.86929309 68 181 C64.36695814 176.9357043 60.03353822 174.22428113 55.49609375 171.28515625 C54.64269913 170.72642319 53.7893045 170.16769012 52.91004944 169.59202576 C51.05995611 168.38102141 49.20853934 167.17203704 47.35595703 165.96484375 C42.34324186 162.69739548 37.34140123 159.41339953 32.33984375 156.12890625 C31.30914764 155.45231964 30.27845154 154.77573303 29.21652222 154.0786438 C18.91754455 147.3076063 8.70363794 140.41351859 -1.5 133.5 C-17.16388737 122.8923236 -32.91364428 112.42376537 -48.72869873 102.0428772 C-57.8293931 96.06898926 -66.9230604 90.08950745 -75.91796875 83.95703125 C-76.59002853 83.4988501 -77.26208832 83.04066895 -77.95451355 82.56860352 C-81.01211922 80.48068443 -84.06408185 78.3849952 -87.10913086 76.27880859 C-88.1378833 75.57191895 -89.16663574 74.8650293 -90.2265625 74.13671875 C-91.10908691 73.52530029 -91.99161133 72.91388184 -92.90087891 72.28393555 C-96.5507486 70.05147861 -98.08028061 71.49226013 -101.53125 73.53515625 Z M-190 135 C-190 202.32 -190 269.64 -190 339 C-171.84784043 349.47346672 -171.84784043 349.47346672 -153.69140625 359.93945312 C-143.45381606 365.8392017 -133.23621856 371.77192301 -123.03417969 377.73291016 C-112.47379718 383.89919054 -101.87873234 390.0049595 -91.28222656 396.10888672 C-84.77270411 399.85946399 -78.2660522 403.61501989 -71.75927734 407.37036133 C-66.29465337 410.52385162 -60.82852098 413.6746704 -55.359375 416.8203125 C-53.15616335 418.08839113 -50.95303763 419.35661906 -48.75 420.625 C-47.68458984 421.23802979 -46.61917969 421.85105957 -45.52148438 422.48266602 C-40.17600591 425.565307 -34.84820041 428.67398363 -29.546875 431.83203125 C-28.52754883 432.43901855 -27.50822266 433.04600586 -26.45800781 433.67138672 C-24.52780456 434.82383722 -22.59995149 435.98023579 -20.67480469 437.14111328 C-19.82305664 437.65013184 -18.97130859 438.15915039 -18.09375 438.68359375 C-16.97516602 439.35733032 -16.97516602 439.35733032 -15.83398438 440.04467773 C-14.04901717 441.15399362 -14.04901717 441.15399362 -12 441 C-12 373.68 -12 306.36 -12 237 C-20.58 232.05 -29.16 227.1 -38 222 C-50 215 -50 215 -55.9453125 211.52734375 C-65.51494829 205.94531571 -75.11791575 200.42093923 -84.71777344 194.89111328 C-90.14659942 191.76319852 -95.57319281 188.63141552 -101 185.5 C-103.16665583 184.24998121 -105.3333225 182.99998122 -107.5 181.75 C-114 178 -114 178 -120.5 174.25 C-121.57282227 173.63108887 -122.64564453 173.01217773 -123.75097656 172.37451172 C-125.91447476 171.12628966 -128.07788643 169.87791761 -130.24121094 168.62939453 C-135.70565017 165.47594744 -141.17163645 162.32523904 -146.640625 159.1796875 C-148.84383665 157.91160887 -151.04696237 156.64338094 -153.25 155.375 C-154.31541016 154.76197021 -155.38082031 154.14894043 -156.47851562 153.51733398 C-161.82399409 150.434693 -167.15179959 147.32601637 -172.453125 144.16796875 C-173.47245117 143.56098145 -174.49177734 142.95399414 -175.54199219 142.32861328 C-177.47219544 141.17616278 -179.40004851 140.01976421 -181.32519531 138.85888672 C-182.17694336 138.34986816 -183.02869141 137.84084961 -183.90625 137.31640625 C-184.65197266 136.86724854 -185.39769531 136.41809082 -186.16601562 135.95532227 C-187.95098283 134.84600638 -187.95098283 134.84600638 -190 135 Z M175.12890625 137.75390625 C174.09314453 138.35332031 173.05738281 138.95273438 171.99023438 139.5703125 C170.85908203 140.22773438 169.72792969 140.88515625 168.5625 141.5625 C167.38229328 142.24632132 166.20195274 142.92991171 165.02148438 143.61328125 C162.56474459 145.03572203 160.10858885 146.4591637 157.65283203 147.88330078 C152.10726773 151.09818698 146.55320447 154.2983361 141 157.5 C138.85414261 158.73823956 136.70830942 159.97652106 134.5625 161.21484375 C130.61457008 163.49263284 126.66571181 165.76879443 122.71557617 168.04275513 C120.94954478 169.05947198 119.18372569 170.07655658 117.41796875 171.09375 C115.21265845 172.36400873 113.00695784 173.63359018 110.80078125 174.90234375 C109.79402344 175.48242188 108.78726563 176.0625 107.75 176.66015625 C106.87859375 177.16168213 106.0071875 177.66320801 105.109375 178.17993164 C103.57023437 179.08086548 103.57023437 179.08086548 102 180 C101.15992905 180.31349899 100.31985809 180.62699799 99.45433044 180.94999695 C96.32503701 182.32148782 94.33411014 183.48641738 92 186 C90.53624701 191.61737995 90.76688982 197.11831161 90.91015625 202.88671875 C90.91398903 204.55247083 90.91297504 206.21824049 90.90733337 207.88398743 C90.90352522 212.25849584 90.9567434 216.63035907 91.0246582 221.00427246 C91.12351985 228.01420113 91.13419116 235.0248365 91.14742851 242.03534889 C91.16001257 244.48376333 91.19599196 246.93096891 91.2358551 249.3790741 C91.24888344 250.87600349 91.26151397 252.37293641 91.27368164 253.86987305 C91.30227013 255.83128487 91.30227013 255.83128487 91.33143616 257.83232117 C91 261 91 261 89.6313324 262.89485168 C87.37984417 264.42012539 85.71340285 264.80618551 83 265 C80.25 264.1875 80.25 264.1875 78 263 C76.6109048 260.2218096 76.83668449 257.91465255 76.79467773 254.80615234 C76.7647599 252.85435562 76.7647599 252.85435562 76.73423767 250.86312866 C76.71725327 249.4373995 76.70037447 248.01166907 76.68359375 246.5859375 C76.66302479 245.13147387 76.64202834 243.67701623 76.62062073 242.2225647 C76.56539396 238.39213912 76.5159874 234.56165955 76.46777344 230.73114014 C76.4175628 226.8233153 76.36187446 222.915569 76.30664062 219.0078125 C76.19905167 211.33860815 76.09760838 203.66933855 76 196 C72.38360716 197.41283723 69.09649971 198.99445287 65.73828125 200.94921875 C64.71452393 201.5426709 63.6907666 202.13612305 62.63598633 202.74755859 C61.53923584 203.38773926 60.44248535 204.02791992 59.3125 204.6875 C58.15864392 205.3579232 57.00458769 206.02800205 55.8503418 206.69775391 C54.05423762 207.74012958 52.25834255 208.78285424 50.46321106 209.8269043 C46.32569231 212.23321256 42.18079413 214.62620081 38.03125 217.01171875 C36.90420654 217.65987549 35.77716309 218.30803223 34.6159668 218.97583008 C32.49283572 220.19642254 30.36933161 221.41636649 28.24536133 222.63549805 C26.29086346 223.76103619 24.34743835 224.90610476 22.41766453 226.07352543 C19.9701291 227.45315609 17.73590316 228.56156786 15.16940975 229.62924099 C7.8962478 232.85995697 7.8962478 232.85995697 3.1460011 238.93348432 C1.76520873 244.78619063 2.1212499 250.78109142 2.29711914 256.74829102 C2.30135401 258.75944195 2.29896786 260.77061605 2.29048157 262.78175354 C2.28618688 268.22524242 2.37419401 273.66374766 2.47909093 279.10608029 C2.57303101 284.79929722 2.58168466 290.49263583 2.59947205 296.18650818 C2.64604645 306.96084489 2.76906598 317.73289143 2.91971439 328.50622076 C3.08753084 340.77431177 3.16988669 353.04251375 3.24514592 365.31146729 C3.4018252 390.54224665 3.66556378 415.77099488 4 441 C7.79130874 439.52122382 11.23693832 437.82498817 14.76953125 435.796875 C16.45767944 434.83044067 16.45767944 434.83044067 18.17993164 433.84448242 C19.39091613 433.14654429 20.60176941 432.44837848 21.8125 431.75 C23.05778374 431.03412609 24.30314599 430.31838873 25.54858398 429.6027832 C28.74091491 427.76701394 31.93039492 425.92634305 35.11938477 424.08477783 C36.94883303 423.02951417 38.77976574 421.97688227 40.61132812 420.92529297 C43.93140986 419.01788263 47.2476105 417.1039165 50.5625 415.1875 C51.57223877 414.60774414 52.58197754 414.02798828 53.62231445 413.43066406 C54.55261475 412.89022461 55.48291504 412.34978516 56.44140625 411.79296875 C57.25295166 411.3239917 58.06449707 410.85501465 58.90063477 410.37182617 C60.88292754 409.07650078 62.40482701 407.74004303 64 406 C63.52820313 405.01386719 63.52820313 405.01386719 63.046875 404.0078125 C52.15661878 379.79995378 51.54240375 351.72989251 60.1328125 326.69921875 C61.29906276 323.721805 62.59386922 320.87134269 64 318 C64.49113281 316.96746094 64.98226562 315.93492187 65.48828125 314.87109375 C76.66785873 292.69870977 96.40259632 274.4730974 120.07861328 266.28076172 C131.9844177 262.43858744 142.62228893 260.81881101 155.1875 260.8125 C156.45142578 260.80025391 157.71535156 260.78800781 159.01757812 260.77539062 C160.88639648 260.77249023 160.88639648 260.77249023 162.79296875 260.76953125 C164.47169067 260.76336792 164.47169067 260.76336792 166.18432617 260.75708008 C171.16906398 261.07442694 176.08573771 262.10649777 181 263 C181 220.76 181 178.52 181 135 C178.93260459 135 176.84166342 136.76014354 175.12890625 137.75390625 Z M95.84765625 300.93359375 C79.65092848 316.38421506 71.16892863 337.22459541 70.53173828 359.34277344 C70.42695561 370.17891332 71.15428143 379.78443797 75 390 C75.67095703 391.81371094 75.67095703 391.81371094 76.35546875 393.6640625 C84.33137929 413.63591356 100.27353403 431.00410384 120.00585938 439.90478516 C142.28877246 449.20333348 165.36620186 450.47670288 188.08447266 441.80224609 C210.41164373 432.45135594 226.43795751 414.92388899 236 393 C242.69783551 374.30271899 244.12225698 352.80720984 237 334 C236.38125 332.25783203 236.38125 332.25783203 235.75 330.48046875 C227.45788462 309.11413735 211.14311686 293.25563441 190.5625 283.5703125 C157.33925301 268.92585495 122.31202395 277.15888956 95.84765625 300.93359375 Z " fill="#D44C9C" transform="translate(230,24)"/>
<path d="M0 0 C3.72315918 0.55451307 5.90267443 1.10700998 8.25 4.125 C9.39831935 7.98752871 8.72837746 11.85574508 6.9375 15.4375 C6.2775 15.4375 5.6175 15.4375 4.9375 15.4375 C4.71320313 15.95441406 4.48890625 16.47132813 4.2578125 17.00390625 C2.43162938 20.36991833 0.1264265 23.33610616 -2.1875 26.375 C-2.70739502 27.06303711 -3.22729004 27.75107422 -3.76293945 28.45996094 C-5.52521576 30.7890603 -7.29315944 33.11376298 -9.0625 35.4375 C-9.71750488 36.29811035 -10.37250977 37.1587207 -11.04736328 38.04541016 C-13.81261073 41.67730815 -16.57910494 45.30824807 -19.34814453 48.93725586 C-22.77113699 53.42404058 -26.18472686 57.91657992 -29.5625 62.4375 C-30.60696064 63.83079021 -31.65148302 65.22403436 -32.69677734 66.61669922 C-33.77367514 68.05243461 -34.84924039 69.48916949 -35.92431641 70.92626953 C-38.06886231 73.78849615 -40.22141166 76.64457261 -42.375 79.5 C-43.06980469 80.43005859 -43.76460938 81.36011719 -44.48046875 82.31835938 C-45.14304687 83.19427734 -45.805625 84.07019531 -46.48828125 84.97265625 C-47.08036377 85.760354 -47.67244629 86.54805176 -48.2824707 87.35961914 C-51.1017502 90.65064751 -53.08056322 92.25222891 -57.375 93.0625 C-62.70231015 92.15956608 -64.68825536 89.48235811 -68.0625 85.4375 C-68.74054688 84.62667969 -69.41859375 83.81585938 -70.1171875 82.98046875 C-71.62444485 81.14869513 -73.12132415 79.30834757 -74.609375 77.4609375 C-76.76216755 74.80765496 -78.94636585 72.18970484 -81.15991211 69.58740234 C-82.09370562 68.4889556 -83.02422419 67.38771626 -83.95141602 66.28369141 C-86.17519571 63.63717729 -88.42171798 61.02900811 -90.76171875 58.484375 C-97.61900703 50.77665379 -97.61900703 50.77665379 -97.9375 45.5 C-97.56999714 42.29583445 -97.08038366 41.45906559 -94.9375 38.875 C-91.40183859 37.10716929 -89.95862263 36.59715983 -86.0625 37.4375 C-74.51541547 44.62523576 -65.50308081 58.99334698 -57.0625 69.4375 C-50.38765718 61.73220909 -44.24659135 53.72901243 -38.2355957 45.49853516 C-34.16257252 39.9217878 -30.00988846 34.42655906 -25.7734375 28.97265625 C-23.57828024 26.13012223 -21.43057953 23.25423182 -19.2890625 20.37109375 C-18.62253662 19.47511475 -17.95601074 18.57913574 -17.26928711 17.65600586 C-15.95157644 15.88201138 -14.63712976 14.10558641 -13.32641602 12.32641602 C-4.65584312 0.66512045 -4.65584312 0.66512045 0 0 Z " fill="#D44C9C" transform="translate(431.0625,338.5625)"/>
</svg>
