<?xml version="1.0" encoding="UTF-8"?>
<svg version="1.1" xmlns="http://www.w3.org/2000/svg" width="512" height="512">
<path d="M0 0 C1.07865326 -0.00623996 2.15730652 -0.01247993 3.26864624 -0.01890898 C6.89546342 -0.03490751 10.52161492 -0.02220737 14.1484375 -0.00964355 C16.74349359 -0.0150616 19.3385466 -0.02218246 21.93359375 -0.03088379 C28.25779314 -0.04868452 34.5818028 -0.04482221 40.90600967 -0.03323323 C46.04510304 -0.02420524 51.18414317 -0.02297214 56.32324219 -0.02732849 C57.41973996 -0.02824789 57.41973996 -0.02824789 58.53838921 -0.02918586 C60.02332816 -0.03046474 61.5082671 -0.0317616 62.99320602 -0.03307623 C76.92247659 -0.04448657 90.85164192 -0.03136123 104.78089523 -0.00987476 C116.73679537 0.00799666 128.69254017 0.00489268 140.6484375 -0.0135498 C154.52733926 -0.03494854 168.40614875 -0.04338789 182.2850647 -0.03110075 C183.76458739 -0.02982653 185.24411009 -0.02856905 186.72363281 -0.02732849 C187.81560628 -0.02640284 187.81560628 -0.02640284 188.92963982 -0.02545848 C194.06346728 -0.02200258 199.19723628 -0.02783908 204.33105469 -0.0372467 C211.23887883 -0.04962671 218.14640414 -0.04083189 225.05419922 -0.01766968 C227.59390778 -0.01236719 230.13364098 -0.01392247 232.67333984 -0.02272034 C236.13152254 -0.03359813 239.58875349 -0.02000508 243.046875 0 C244.56612076 -0.01338433 244.56612076 -0.01338433 246.11605835 -0.02703905 C252.75309209 0.04779588 252.75309209 0.04779588 256.14647675 2.07471466 C258.00814494 5.36445847 258.07819622 8.26587714 258.03137207 11.9473877 C258.03761203 12.69935677 258.043852 13.45132584 258.05028105 14.22608185 C258.06624422 16.74743444 258.05359439 19.2678247 258.04101562 21.78918457 C258.04643529 23.59607508 258.05355707 25.40296117 258.06225586 27.20983887 C258.08051072 32.11891487 258.07341276 37.02765509 258.06073952 41.93673706 C258.05062306 47.07050491 258.06000143 52.20424373 258.06628418 57.3380127 C258.07356453 65.95981008 258.06396269 74.58147048 258.04492188 83.20324707 C258.02315242 93.17582426 258.03020351 103.14807436 258.0522275 113.12064362 C258.07037043 121.67785698 258.07294523 130.2349718 258.06247282 138.79219818 C258.05623181 143.90526187 258.05541896 149.01817174 258.06861877 154.13122559 C258.08016055 158.93791032 258.07218219 163.74417273 258.04904175 168.55081177 C258.0437457 170.31649066 258.04528371 172.08220501 258.05409241 173.84786987 C258.06499651 176.2552227 258.05134796 178.66121568 258.03137207 181.06848145 C258.04029496 181.77003609 258.04921784 182.47159073 258.05841112 183.1944046 C258.00468467 186.52400659 257.7076421 188.26129602 255.69222832 190.95981026 C252.49661961 193.24089679 250.31780932 192.71767848 246.45556641 192.32385254 C244.98666692 192.19412678 243.51762359 192.06602239 242.04846191 191.93930054 C240.87897758 191.82894785 240.87897758 191.82894785 239.68586731 191.71636581 C197.48335271 187.04776873 197.48335271 187.04776873 159.77968216 202.26254654 C147.99342047 212.53336954 137.94679254 224.89606039 128.97195435 237.64807129 C126.75523577 240.49428844 125.5583311 240.50312166 121.8984375 241.00793457 C117.10395712 240.93124928 114.97864467 238.76518996 111.56274414 235.63018799 C108.88232464 232.84074508 106.74142271 229.8300297 104.56121826 226.64230347 C94.92936229 212.7537756 82.34716585 196.09640193 64.89282227 192.36987305 C44.13690953 188.84847612 22.03669055 190.40287341 1.15167236 192.09255981 C0.3954937 192.14731665 -0.36068497 192.20207348 -1.13977814 192.25848961 C-3.1703317 192.40849283 -5.19909325 192.58222737 -7.2276001 192.75775146 C-10.4765625 192.50793457 -10.4765625 192.50793457 -12.89587402 190.96643066 C-15.06182368 187.59765886 -14.95783519 185.25501938 -14.93066406 181.26086426 C-14.93124817 180.53851593 -14.93183228 179.8161676 -14.93243408 179.07192993 C-14.9296533 176.69072969 -14.89856389 174.31079037 -14.8671875 171.92980957 C-14.85972503 170.27643518 -14.85403213 168.62305193 -14.85003662 166.96966553 C-14.8347806 162.62275679 -14.79549945 158.27638458 -14.7512207 153.9296875 C-14.71026708 149.49230202 -14.69202544 145.05482965 -14.671875 140.61730957 C-14.6290048 131.91393864 -14.56075434 123.21100339 -14.4765625 114.50793457 C-18.12231943 114.34343352 -21.7681799 114.18134343 -25.4140625 114.01965332 C-26.43564453 113.97352905 -27.45722656 113.92740479 -28.50976562 113.87988281 C-73.97608882 111.87348157 -118.25989542 119.40590645 -153.25439453 150.66540527 C-155.70163774 152.90592145 -158.08810333 155.20477751 -160.4765625 157.50793457 C-161.25515625 158.22336426 -162.03375 158.93879395 -162.8359375 159.67590332 C-173.58278827 169.83205839 -181.65725823 182.47871068 -188.4765625 195.50793457 C-189.38535156 197.24430176 -189.38535156 197.24430176 -190.3125 199.01574707 C-200.60474327 219.46099872 -204.74231767 241.80169001 -205.4765625 264.50793457 C-205.49740906 265.14686646 -205.51825562 265.78579834 -205.53973389 266.4440918 C-205.88650008 277.13110158 -206.19192965 287.81910146 -206.4765625 298.50793457 C-204.83010742 298.02332764 -204.83010742 298.02332764 -203.15039062 297.52893066 C-197.99528128 296.24721977 -192.98549165 296.18424029 -187.6953125 296.17199707 C-186.68239136 296.16534027 -185.66947021 296.15868347 -184.62585449 296.15182495 C-182.49456588 296.14174692 -180.36324601 296.13700642 -178.23193359 296.1373291 C-174.98612325 296.13294748 -171.74166488 296.09655215 -168.49609375 296.05871582 C-166.41667128 296.05284819 -164.3372424 296.04887844 -162.2578125 296.04699707 C-161.29613159 296.03262604 -160.33445068 296.018255 -159.34362793 296.00344849 C-152.07976577 296.0523211 -146.74609957 297.64281759 -141.234375 302.47277832 C-140.69554687 303.12375488 -140.15671875 303.77473145 -139.6015625 304.44543457 C-139.04726562 305.09383301 -138.49296875 305.74223145 -137.921875 306.41027832 C-134.15257284 311.8808601 -134.17972128 316.88057915 -134.18603516 323.31188965 C-134.17931793 324.29463364 -134.17260071 325.27737762 -134.16567993 326.28990173 C-134.14669636 329.535808 -134.14277545 332.78150751 -134.140625 336.02746582 C-134.13419704 338.28802068 -134.12746868 340.5485747 -134.12045288 342.80912781 C-134.108479 347.54769825 -134.10477215 352.28619577 -134.10595703 357.02478027 C-134.10616016 363.08754647 -134.07886471 369.14984358 -134.04441261 375.21249866 C-134.02214055 379.88203567 -134.0181196 384.55145987 -134.01917648 389.22104454 C-134.01682074 391.45569156 -134.00799877 393.6903417 -133.99251175 395.92493629 C-133.97284741 399.05555383 -133.97869225 402.185161 -133.99072266 405.3157959 C-133.97948364 406.2329538 -133.96824463 407.15011169 -133.95666504 408.09506226 C-134.0252326 415.1407704 -135.76271897 420.41102366 -140.44140625 425.75012207 C-141.41787109 426.55836426 -141.41787109 426.55836426 -142.4140625 427.38293457 C-143.06246094 427.93723145 -143.71085937 428.49152832 -144.37890625 429.06262207 C-149.9635149 432.91049023 -155.18331605 432.82861258 -161.75390625 432.84387207 C-162.75684219 432.85052887 -163.75977814 432.85718567 -164.79310608 432.86404419 C-166.91714653 432.8741597 -169.04121869 432.87886155 -171.1652832 432.87854004 C-174.37181131 432.88287742 -177.57692164 432.91910976 -180.78320312 432.95715332 C-203.21522214 433.08205552 -219.54462172 427.56572923 -236.4765625 412.50793457 C-236.8065625 412.17793457 -237.1365625 411.84793457 -237.4765625 411.50793457 C-237.77300148 422.16326892 -237.89330705 430.73838369 -231.4765625 439.50793457 C-231.4765625 440.16793457 -231.4765625 440.82793457 -231.4765625 441.50793457 C-222.45274958 446.20031729 -214.91177567 447.6481221 -204.89111328 447.71325684 C-203.94414078 447.72315643 -202.99716827 447.73305603 -202.02149963 447.74325562 C-198.90498314 447.77473335 -195.78845143 447.7995736 -192.671875 447.82434082 C-190.50568251 447.84492221 -188.33949393 447.86591899 -186.17330933 447.88731384 C-180.48192518 447.94241215 -174.79050553 447.99187528 -169.09906006 448.04016113 C-163.2873622 448.09046569 -157.47571567 448.14610496 -151.6640625 448.20129395 C-140.26827306 448.30872574 -128.87243898 448.41020379 -117.4765625 448.50793457 C-117.17709717 447.55942627 -116.87763184 446.61091797 -116.5690918 445.63366699 C-115.48683663 442.5373289 -114.5918816 441.08109679 -112.2890625 438.82043457 C-111.73863281 438.25969238 -111.18820313 437.6989502 -110.62109375 437.12121582 C-104.93613572 432.8445534 -99.66026511 432.04803925 -92.76171875 432.07434082 C-91.94714706 432.06909897 -91.13257538 432.06385712 -90.2933197 432.05845642 C-88.57975396 432.05206631 -86.86614418 432.05333397 -85.15258789 432.06188965 C-82.54948849 432.07040048 -79.9485864 432.0415972 -77.34570312 432.0098877 C-75.67187565 432.00827525 -73.99804434 432.00885404 -72.32421875 432.01184082 C-71.5562648 432.00060684 -70.78831085 431.98937286 -69.99708557 431.97779846 C-63.38984401 432.06183182 -58.2185837 434.10508324 -53.234375 438.47277832 C-52.69554687 439.12375488 -52.15671875 439.77473145 -51.6015625 440.44543457 C-51.04726562 441.09383301 -50.49296875 441.74223145 -49.921875 442.41027832 C-45.44244153 448.91151014 -45.80192522 455.87934374 -46.4765625 463.50793457 C-48.15741833 470.1675279 -52.94034572 474.69340904 -58.4765625 478.50793457 C-62.8958667 480.75974383 -67.13757173 480.83001414 -71.99609375 480.84387207 C-72.81349533 480.85052887 -73.63089691 480.85718567 -74.47306824 480.86404419 C-76.19857544 480.87414335 -77.92412148 480.87886206 -79.6496582 480.87854004 C-82.2703599 480.88290343 -84.88936259 480.91922287 -87.50976562 480.95715332 C-89.19270263 480.9630243 -90.87564756 480.96699181 -92.55859375 480.96887207 C-93.33282181 480.9832431 -94.10704987 480.99761414 -94.90473938 481.01242065 C-101.57013186 480.95729786 -106.73218236 478.91809346 -111.75390625 474.50793457 C-112.30175781 473.84793457 -112.84960938 473.18793457 -113.4140625 472.50793457 C-113.97996094 471.84793457 -114.54585937 471.18793457 -115.12890625 470.50793457 C-116.51224936 468.4549732 -116.94698787 466.89615133 -117.4765625 464.50793457 C-118.78011185 464.51681702 -120.08366119 464.52569946 -121.42671204 464.53485107 C-133.74065035 464.61610924 -146.05453392 464.67598272 -158.36868 464.71518326 C-164.69878164 464.73601449 -171.02866597 464.76425091 -177.35864258 464.80969238 C-183.47299001 464.85330879 -189.58712905 464.87710522 -195.7016201 464.88744354 C-198.02870143 464.89480655 -200.35577198 464.90918454 -202.68276405 464.9308548 C-205.95452718 464.96009812 -209.22544065 464.96388176 -212.49731445 464.96203613 C-213.4489447 464.97641724 -214.40057495 464.99079834 -215.38104248 465.00561523 C-226.40237012 464.9388004 -235.51569564 461.10762789 -243.4765625 453.50793457 C-254.21677678 442.25729426 -255.06857551 430.12236732 -254.99414062 415.30627441 C-254.99957 413.48316389 -255.00669721 411.66005776 -255.01538086 409.83695984 C-255.03353828 404.9082934 -255.02657326 399.97996389 -255.01386452 395.05129194 C-255.00367586 389.86199563 -255.01314837 384.67272651 -255.01940918 379.48342896 C-255.02667768 370.75619388 -255.01712833 362.02909434 -254.99804688 353.30187988 C-254.97637533 343.275611 -254.98326172 333.24966879 -255.0053525 323.2234081 C-255.02364421 314.56891135 -255.02599545 305.91451167 -255.01559782 297.26000178 C-255.00942549 292.11227954 -255.00834935 286.96470942 -255.02174377 281.81699753 C-255.11558666 240.09556639 -255.11558666 240.09556639 -250.4765625 219.50793457 C-250.32234738 218.81862288 -250.16813227 218.12931118 -250.00924397 217.41911125 C-249.21325755 213.94192342 -248.2923378 210.53691962 -247.2265625 207.13293457 C-246.92919189 206.154375 -246.63182129 205.17581543 -246.32543945 204.16760254 C-231.6421236 157.18862942 -199.9477886 118.48089319 -158.4765625 92.50793457 C-157.57744141 91.93994141 -157.57744141 91.93994141 -156.66015625 91.36047363 C-140.9873068 81.6030247 -123.46707782 74.80086699 -105.6640625 70.07043457 C-104.83189209 69.84782959 -103.99972168 69.62522461 -103.14233398 69.39587402 C-100.26557749 68.68347423 -97.38460263 68.0805669 -94.4765625 67.50793457 C-93.82528381 67.3770343 -93.17400513 67.24613403 -92.50299072 67.11126709 C-78.10661941 64.31282142 -63.891921 64.10463909 -49.26171875 64.22668457 C-45.42698598 64.25834387 -41.59266414 64.26771969 -37.7578125 64.27355957 C-35.30989078 64.2827127 -32.86197324 64.293083 -30.4140625 64.30480957 C-29.27251709 64.30905945 -28.13097168 64.31330933 -26.95483398 64.31768799 C-25.89852783 64.32729553 -24.84222168 64.33690308 -23.75390625 64.34680176 C-22.82827881 64.35362976 -21.90265137 64.36045776 -20.94897461 64.36749268 C-18.65365805 64.49787491 -16.67648394 64.86260606 -14.4765625 65.50793457 C-14.48544495 64.75260437 -14.49432739 63.99727417 -14.503479 63.21905518 C-14.58365639 56.0977237 -14.64454235 48.97661132 -14.68381119 41.85494614 C-14.7046786 38.19366946 -14.73297956 34.53276599 -14.77832031 30.8717041 C-14.82181013 27.33794746 -14.84570598 23.80454958 -14.85607147 20.27054596 C-14.86704987 18.26742205 -14.89827126 16.26444231 -14.92974854 14.26153564 C-14.93005066 13.0405719 -14.93035278 11.81960815 -14.93066406 10.56164551 C-14.93954651 9.48686951 -14.94842896 8.41209351 -14.95758057 7.30474854 C-13.54752424 -0.89383171 -6.75570547 -0.05951677 0 0 Z M1.5234375 16.50793457 C1.5234375 69.30793457 1.5234375 122.10793457 1.5234375 176.50793457 C26.6034375 176.83793457 51.6834375 177.16793457 77.5234375 177.50793457 C86.5234375 185.38293457 86.5234375 185.38293457 89.64453125 188.51550293 C90.69471436 189.56579933 90.69471436 189.56579933 91.76611328 190.63731384 C92.49040527 191.36676712 93.21469727 192.0962204 93.9609375 192.84777832 C94.72647949 193.61473526 95.49202148 194.3816922 96.28076172 195.17189026 C98.69736947 197.59404338 101.11045476 200.01967069 103.5234375 202.44543457 C105.17294436 204.0999635 106.82268179 205.75426259 108.47265625 207.4083252 C112.49225121 211.43887659 116.50896919 215.47227729 120.5234375 219.50793457 C123.83151002 218.06540172 125.99539131 216.27499908 128.52587891 213.7166748 C129.29993073 212.93924423 130.07398254 212.16181366 130.87149048 211.36082458 C131.69764862 210.52120682 132.52380676 209.68158905 133.375 208.81652832 C134.23024261 207.95608414 135.08548523 207.09563995 135.96664429 206.2091217 C138.69869088 203.45925559 141.42396256 200.70280103 144.1484375 197.94543457 C146.88091297 195.1853753 149.6148161 192.42676948 152.35165405 189.67103577 C154.05494683 187.95545069 155.75555991 186.23720032 157.45327759 184.51609802 C158.22102509 183.74181961 158.98877258 182.9675412 159.77978516 182.1697998 C160.45610992 181.48522202 161.13243469 180.80064423 161.82925415 180.09532166 C181.23403495 161.91376035 214.93411092 176.85779413 241.5234375 176.50793457 C241.5234375 123.70793457 241.5234375 70.90793457 241.5234375 16.50793457 C162.3234375 16.50793457 83.1234375 16.50793457 1.5234375 16.50793457 Z M-181.4140625 131.69543457 C-181.92163086 132.15812744 -182.42919922 132.62082031 -182.95214844 133.09753418 C-211.23604256 159.51283661 -228.92359554 196.35317634 -235.7890625 234.07043457 C-236.02846558 235.3608667 -236.02846558 235.3608667 -236.27270508 236.67736816 C-239.37767086 255.2660148 -238.60372926 274.42621232 -238.5390625 293.19543457 C-238.53403385 295.75858473 -238.52947338 298.32173585 -238.52539062 300.8848877 C-238.51450149 307.09259141 -238.49787313 313.30025832 -238.4765625 319.50793457 C-236.85708735 318.09520093 -235.23928684 316.68051164 -233.62893677 315.25738525 C-231.4765625 313.50793457 -231.4765625 313.50793457 -229.04269409 312.01287842 C-225.37135066 309.66920606 -222.90275612 308.00881901 -221.68121338 303.70703125 C-221.38710426 300.22854238 -221.38689208 296.85688033 -221.484375 293.36730957 C-221.48078676 291.41484655 -221.47718404 289.46238344 -221.47280693 287.50992203 C-221.47788889 284.7797315 -221.52403735 282.05080825 -221.56988525 279.32104492 C-221.66240439 273.2953571 -221.66591703 267.26857906 -221.671875 261.24230957 C-221.67473007 259.95568924 -221.67758514 258.66906891 -221.68052673 257.34346008 C-221.60851011 241.01041813 -218.66024002 225.94107254 -213.4765625 210.50793457 C-213.25629395 209.84197266 -213.03602539 209.17601074 -212.80908203 208.48986816 C-205.03858525 185.3589558 -191.82892478 165.4597869 -175.4765625 147.50793457 C-174.46529297 146.38838379 -174.46529297 146.38838379 -173.43359375 145.24621582 C-153.15514682 123.93006585 -124.49673813 108.87744086 -96.2265625 101.69543457 C-95.45997314 101.50054443 -94.69338379 101.3056543 -93.90356445 101.1048584 C-82.14204082 98.29363991 -70.49477629 97.20845861 -58.421875 97.31262207 C-57.15431366 97.31545197 -55.88675232 97.31828186 -54.58078003 97.32119751 C-51.26331577 97.33039454 -47.94605862 97.34825864 -44.62866211 97.37060547 C-41.22251882 97.39132211 -37.81634481 97.40025353 -34.41015625 97.41027832 C-27.765536 97.43216391 -21.12108907 97.46660102 -14.4765625 97.50793457 C-14.4765625 92.55793457 -14.4765625 87.60793457 -14.4765625 82.50793457 C-74.13846737 70.5755536 -137.27050956 91.37569201 -181.4140625 131.69543457 Z M-224.44140625 329.37902832 C-235.29127503 340.79869327 -238.09724948 354.37649212 -237.78515625 369.54699707 C-237.20537723 382.31175843 -230.80486595 394.21973292 -221.47265625 402.88684082 C-209.19318753 412.85940348 -198.47449647 415.365225 -182.4765625 416.50793457 C-182.4765625 403.30793457 -182.4765625 390.10793457 -182.4765625 376.50793457 C-177.1965625 376.50793457 -171.9165625 376.50793457 -166.4765625 376.50793457 C-166.4765625 389.70793457 -166.4765625 402.90793457 -166.4765625 416.50793457 C-158.66938339 416.76106702 -158.66938339 416.76106702 -152.4765625 413.50793457 C-150.08059197 409.16498097 -150.18685196 404.79048349 -150.2019043 399.95739746 C-150.1942379 398.68328758 -150.1942379 398.68328758 -150.18641663 397.38343811 C-150.17254424 394.58241686 -150.17347557 391.78164229 -150.17578125 388.98059082 C-150.17189314 387.0291281 -150.16755823 385.07766623 -150.16279602 383.12620544 C-150.15533895 379.03833267 -150.15562146 374.95054628 -150.16088867 370.8626709 C-150.16668375 365.62930572 -150.14974882 360.39629439 -150.126544 355.16298771 C-150.11179857 351.13347819 -150.11093605 347.10405374 -150.11405373 343.07452202 C-150.11354096 341.14525082 -150.10831162 339.2159748 -150.09824181 337.28672981 C-150.08587856 334.58687591 -150.09266828 331.88770945 -150.10424805 329.18786621 C-150.09660431 328.3944281 -150.08896057 327.60098999 -150.08108521 326.7835083 C-150.12658415 321.9739142 -150.82931741 318.68105274 -153.4765625 314.50793457 C-157.9002472 311.72733276 -160.83780881 312.50793457 -166.4765625 312.50793457 C-166.4765625 317.78793457 -166.4765625 323.06793457 -166.4765625 328.50793457 C-171.7565625 328.50793457 -177.0365625 328.50793457 -182.4765625 328.50793457 C-182.4765625 323.22793457 -182.4765625 317.94793457 -182.4765625 312.50793457 C-199.44723288 312.50793457 -212.25503905 317.774118 -224.44140625 329.37902832 Z M-100.4765625 451.50793457 C-101.89698071 454.34877098 -101.79108522 456.36270735 -101.4765625 459.50793457 C-99.24449819 462.35574076 -97.92663251 463.35791123 -94.4765625 464.50793457 C-90.54344397 464.76676977 -86.60479064 464.73933526 -82.6640625 464.75793457 C-81.04274414 464.78887207 -81.04274414 464.78887207 -79.38867188 464.82043457 C-71.50891353 464.86440967 -71.50891353 464.86440967 -64.4765625 461.50793457 C-63.05614429 458.66709816 -63.16203978 456.65316179 -63.4765625 453.50793457 C-65.70862681 450.66012838 -67.02649249 449.65795791 -70.4765625 448.50793457 C-74.40968103 448.24909937 -78.34833436 448.27653388 -82.2890625 448.25793457 C-83.36994141 448.23730957 -84.45082031 448.21668457 -85.56445312 448.19543457 C-93.44421147 448.15145947 -93.44421147 448.15145947 -100.4765625 451.50793457 Z " fill="#FF6A00" transform="translate(254.4765625,15.4920654296875)"/>
<path d="M0 0 C5.28 0 10.56 0 16 0 C15.97268799 1.71509766 15.94537598 3.43019531 15.91723633 5.19726562 C15.83961228 10.88919082 15.81326439 16.57984057 15.82121754 22.27228546 C15.82418632 25.72131282 15.8071264 29.1677281 15.74291992 32.61621094 C15.66986466 36.58857225 15.68638351 40.55822882 15.70703125 44.53125 C15.67213089 45.75863892 15.63723053 46.98602783 15.60127258 48.25061035 C15.70619264 55.05516659 15.70619264 55.05516659 19.43002319 60.50756836 C22.20901425 62.52078498 25.04894959 64.25472357 28 66 C28.99 66.99 29.98 67.98 31 69 C31.33 46.23 31.66 23.46 32 0 C37.28 0 42.56 0 48 0 C48.09290419 16.44730763 48.16413531 32.8945057 48.20724869 49.34201241 C48.22780598 56.98021547 48.25579441 64.61825172 48.30175781 72.25634766 C48.34183645 78.91974728 48.36748237 85.58302599 48.37635398 92.24654281 C48.38153351 95.76941468 48.39356111 99.29194087 48.42292023 102.81470108 C48.4555572 106.76341093 48.45594606 110.71179375 48.45410156 114.66064453 C48.46848267 115.8072052 48.48286377 116.95376587 48.49768066 118.1350708 C48.40586534 136.44012041 40.71162094 152.97108431 28 166 C14.66572043 177.83814722 -1.25079031 184.48889211 -19.07421875 184.43359375 C-20.08289505 184.4388356 -21.09157135 184.44407745 -22.1308136 184.44947815 C-24.24418219 184.45585114 -26.35758648 184.45462332 -28.47094727 184.44604492 C-31.69025775 184.43749267 -34.90781527 184.46643144 -38.12695312 184.49804688 C-40.19270781 184.49965827 -42.2584656 184.49908254 -44.32421875 184.49609375 C-45.27648849 184.50732773 -46.22875824 184.51856171 -47.20988464 184.53013611 C-54.42889774 184.455295 -59.76485733 182.83497694 -65.2421875 178.03515625 C-66.05042969 177.05869141 -66.05042969 177.05869141 -66.875 176.0625 C-67.42929687 175.41410156 -67.98359375 174.76570312 -68.5546875 174.09765625 C-72.32398966 168.62707447 -72.29684122 163.62735542 -72.29052734 157.19604492 C-72.29724457 156.21330093 -72.30396179 155.23055695 -72.31088257 154.21803284 C-72.32986614 150.97212657 -72.33378705 147.72642706 -72.3359375 144.48046875 C-72.34236546 142.21991389 -72.34909382 139.95935987 -72.35610962 137.69880676 C-72.3680835 132.96023633 -72.37179035 128.2217388 -72.37060547 123.4831543 C-72.37040234 117.4203881 -72.39769779 111.35809099 -72.43214989 105.29543591 C-72.45442195 100.6258989 -72.4584429 95.9564747 -72.45738602 91.28689003 C-72.45974176 89.05224301 -72.46856373 86.81759287 -72.48405075 84.58299828 C-72.50371509 81.45238074 -72.49787025 78.32277357 -72.48583984 75.19213867 C-72.49707886 74.27498077 -72.50831787 73.35782288 -72.51989746 72.41287231 C-72.4513299 65.36716417 -70.71384353 60.09691091 -66.03515625 54.7578125 C-65.38417969 54.21898437 -64.73320312 53.68015625 -64.0625 53.125 C-63.08990234 52.29355469 -63.08990234 52.29355469 -62.09765625 51.4453125 C-56.43810612 47.54580869 -51.16717716 47.70680097 -44.51171875 47.734375 C-43.49455276 47.73246155 -42.47738678 47.7305481 -41.42939758 47.72857666 C-39.28015902 47.72721761 -37.13091217 47.73089445 -34.98168945 47.73925781 C-31.70960798 47.74992791 -28.43807969 47.73936998 -25.16601562 47.7265625 C-23.07291546 47.72788479 -20.97981565 47.73044863 -18.88671875 47.734375 C-17.91562668 47.73032654 -16.94453461 47.72627808 -15.9440155 47.72210693 C-14.55766655 47.73156342 -14.55766655 47.73156342 -13.14331055 47.74121094 C-12.34120651 47.74280212 -11.53910248 47.74439331 -10.71269226 47.74603271 C-7.07949886 48.08617903 -3.54012878 49.1149678 0 50 C0 33.5 0 17 0 0 Z M-54 67 C-56.39597053 71.3429536 -56.28971054 75.71745108 -56.2746582 80.55053711 C-56.27976913 81.3999437 -56.28488007 82.24935028 -56.29014587 83.12449646 C-56.30401826 85.92551771 -56.30308693 88.72629228 -56.30078125 91.52734375 C-56.30466936 93.47880647 -56.30900427 95.43026834 -56.31376648 97.38172913 C-56.32122355 101.4696019 -56.32094104 105.55738829 -56.31567383 109.64526367 C-56.30987875 114.87862886 -56.32681368 120.11164018 -56.3500185 125.34494686 C-56.36476393 129.37445638 -56.36562645 133.40388083 -56.36250877 137.43341255 C-56.36302154 139.36268375 -56.36825088 141.29195977 -56.37832069 143.22120476 C-56.39068394 145.92105866 -56.38389422 148.62022512 -56.37231445 151.32006836 C-56.37995819 152.11350647 -56.38760193 152.90694458 -56.39547729 153.72442627 C-56.34997835 158.53402037 -55.64724509 161.82688184 -53 166 C-48.5763153 168.78060181 -45.63875369 168 -40 168 C-40 154.8 -40 141.6 -40 128 C-34.72 128 -29.44 128 -24 128 C-24 141.2 -24 154.4 -24 168 C-7.2091843 166.80065602 6.66183095 163.61232111 18.37890625 150.99609375 C29.54415716 137.2480378 32.69238581 123.36454498 31 106 C28.62923314 93.19224765 20.88549327 81.88600211 10.53515625 74.16015625 C-0.50960026 66.66493411 -10.78292962 64.52868282 -24 64 C-24 69.28 -24 74.56 -24 80 C-29.28 80 -34.56 80 -40 80 C-40 74.72 -40 69.44 -40 64 C-47.80717911 63.74686755 -47.80717911 63.74686755 -54 67 Z " fill="#FF6A00" transform="translate(368,264)"/>
<path d="M0 0 C1.12921875 -0.02449219 2.2584375 -0.04898438 3.421875 -0.07421875 C15.06806828 -0.11465692 22.64713371 2.96964981 31.05078125 11.00390625 C39.40234872 20.00817171 40.83892685 29.08007954 40.55078125 40.953125 C40.01144276 51.50906675 34.86220184 58.31458874 27.25 65.375 C21.34324536 69.95246684 15.81354325 72.375 8.25 72.375 C8.25 82.935 8.25 93.495 8.25 104.375 C2.97 104.375 -2.31 104.375 -7.75 104.375 C-7.84888089 98.18201358 -7.92147486 91.98948668 -7.96972656 85.79589844 C-7.98984126 83.68904618 -8.01713667 81.58224975 -8.05175781 79.47558594 C-8.10028168 76.44712553 -8.12297016 73.41940322 -8.140625 70.390625 C-8.16127014 69.44882385 -8.18191528 68.50702271 -8.20318604 67.53668213 C-8.20542191 61.01971425 -8.20542191 61.01971425 -5.92382812 57.78979492 C-2.95545445 55.85788505 -0.5145073 55.71758628 3 55.4375 C11.05951095 54.46566708 15.61217023 52.60634147 20.75 46.3125 C23.1993395 41.28201798 23.07205097 35.80486301 22.25 30.375 C20.55085504 25.7361839 17.99930844 22.55192927 13.8125 19.9375 C5.64500855 16.35526691 -3.39013029 16.33977759 -11.75 19.375 C-16.80934447 22.00196732 -19.55308401 25.17051828 -21.75 30.375 C-22.45339861 33.50607253 -22.75276517 36.61647475 -23 39.8125 C-23.11601562 41.05290039 -23.11601562 41.05290039 -23.234375 42.31835938 C-23.42097133 44.3359322 -23.58757214 46.35533778 -23.75 48.375 C-29.03 48.375 -34.31 48.375 -39.75 48.375 C-40.59646399 22.8400031 -40.59646399 22.8400031 -31.5 12.0625 C-22.13768125 2.26972981 -13.29850411 0.01497579 0 0 Z " fill="#FF6A00" transform="translate(375.75,47.625)"/>
<path d="M0 0 C5.28 0 10.56 0 16 0 C16 5.28 16 10.56 16 16 C10.72 16 5.44 16 0 16 C0 10.72 0 5.44 0 0 Z " fill="#FF6A00" transform="translate(328,360)"/>
<path d="M0 0 C5.28 0 10.56 0 16 0 C16 5.28 16 10.56 16 16 C10.72 16 5.44 16 0 16 C0 10.72 0 5.44 0 0 Z " fill="#FF6A00" transform="translate(72,360)"/>
<path d="M0 0 C5.28 0 10.56 0 16 0 C16 5.28 16 10.56 16 16 C10.72 16 5.44 16 0 16 C0 10.72 0 5.44 0 0 Z " fill="#FF6A00" transform="translate(368,168)"/>
</svg>
