<?xml version="1.0" encoding="utf-8"?>
<!-- Generator: Adobe Illustrator 28.2.0, SVG Export Plug-In . SVG Version: 6.00 Build 0)  -->
<svg version="1.1" id="Layer_1" xmlns="http://www.w3.org/2000/svg" xmlns:xlink="http://www.w3.org/1999/xlink" x="0px" y="0px"
	 viewBox="0 0 2003 895" style="enable-background:new 0 0 2003 895;" xml:space="preserve">
<style type="text/css">
	.st0{fill:#FFFFFF;}
	.st1{clip-path:url(#SVGID_00000003078668792720534280000000194480518620960174_);}
	.st2{clip-path:url(#SVGID_00000049900085233686342930000016523739245731407262_);}
	.st3{fill:#00356B;}
	.st4{fill:#00356B;fill-opacity:0.25;}
</style>
<rect class="st0" width="2003" height="895"/>
<g>
	<defs>
		<rect id="SVGID_1_" x="188.5" y="204.1" width="1663.7" height="564.5"/>
	</defs>
	<clipPath id="SVGID_00000098903575816338129730000007573055410100255162_">
		<use xlink:href="#SVGID_1_"  style="overflow:visible;"/>
	</clipPath>
	<g style="clip-path:url(#SVGID_00000098903575816338129730000007573055410100255162_);">
		<g>
			<defs>
				<rect id="SVGID_00000034796566241911475580000009374401357962925991_" x="188.5" y="204.1" width="1663.7" height="564.5"/>
			</defs>
			<clipPath id="SVGID_00000108275480838631911080000001689523897468624052_">
				<use xlink:href="#SVGID_00000034796566241911475580000009374401357962925991_"  style="overflow:visible;"/>
			</clipPath>
			<g style="clip-path:url(#SVGID_00000108275480838631911080000001689523897468624052_);">
				<path class="st3" d="M1002.6,395.5c14.1,0,26.7,2.9,37.7,8.8c11.3,5.9,20.1,14.5,26.3,26c6.5,11.5,9.8,25.4,9.8,41.6v105.7
					h-36.7V477.4c0-16-4-28.3-12-36.7c-8-8.7-19-13-32.8-13s-24.9,4.3-33.2,13c-8,8.5-12,20.7-12,36.7v100.1h-36.7V477.4
					c0-16-4-28.3-12-36.7c-8-8.7-19-13-32.8-13s-24.9,4.3-33.2,13c-8,8.5-12,20.7-12,36.7v100.1h-37.1V398.4h37.1v20.5
					c6.1-7.4,13.8-13.1,23.1-17.2c9.3-4.1,19.3-6.2,29.9-6.2c14.3,0,27.1,3,38.4,9.1s19.9,14.8,26,26.3
					c5.4-10.8,13.9-19.4,25.4-25.7C977.1,398.7,989.4,395.5,1002.6,395.5z M1111.2,487.2c0-18,3.7-33.9,11.1-47.8
					c7.6-13.9,17.8-24.6,30.6-32.2c13-7.8,27.3-11.7,42.9-11.7c14.1,0,26.3,2.8,36.7,8.5c10.6,5.4,19.1,12.2,25.4,20.5v-26h37.4
					v179.1h-37.4v-26.7c-6.3,8.5-14.8,15.5-25.7,21.1c-10.8,5.6-23.2,8.5-37.1,8.5c-15.4,0-29.5-3.9-42.3-11.7
					c-12.8-8-23-19.1-30.6-33.2C1114.9,521.3,1111.2,505.2,1111.2,487.2z M1257.9,487.8c0-12.4-2.6-23.1-7.8-32.2
					c-5-9.1-11.6-16-19.8-20.8c-8.2-4.8-17.1-7.2-26.7-7.2c-9.5,0-18.4,2.4-26.7,7.2c-8.2,4.6-15,11.4-20.2,20.5
					c-5,8.9-7.5,19.5-7.5,31.9c0,12.4,2.5,23.2,7.5,32.5c5.2,9.3,11.9,16.5,20.2,21.5c8.4,4.8,17.3,7.2,26.7,7.2
					c9.5,0,18.4-2.4,26.7-7.2c8.2-4.8,14.8-11.7,19.8-20.8C1255.3,511,1257.9,500.2,1257.9,487.8z M1381,424.4
					c5.4-9.1,12.6-16.1,21.5-21.1c9.1-5.2,19.8-7.8,32.2-7.8v38.4h-9.4c-14.5,0-25.6,3.7-33.2,11.1c-7.4,7.4-11.1,20.2-11.1,38.4
					v94.3h-37.1V398.4h37.1V424.4z M1512,428.6v99.2c0,6.7,1.5,11.6,4.6,14.6c3.2,2.8,8.7,4.2,16.2,4.2h22.8v30.9h-29.3
					c-16.7,0-29.5-3.9-38.4-11.7c-8.9-7.8-13.3-20.5-13.3-38v-99.2h-21.1v-30.2h21.1v-44.5h37.4v44.5h43.6v30.2H1512z M1626.7,337
					v240.6h-37.1V337H1626.7z M1839.6,483.6c0,6.7-0.4,12.8-1.3,18.2h-136.9c1.1,14.3,6.4,25.8,15.9,34.5c9.5,8.7,21.2,13,35.1,13
					c19.9,0,34-8.3,42.3-25h40c-5.4,16.5-15.3,30-29.6,40.6c-14.1,10.4-31.7,15.6-52.7,15.6c-17.1,0-32.5-3.8-46.2-11.4
					c-13.4-7.8-24.1-18.6-31.9-32.5c-7.6-14.1-11.4-30.3-11.4-48.8c0-18.4,3.7-34.6,11.1-48.4c7.6-14.1,18.1-24.9,31.5-32.5
					c13.7-7.6,29.3-11.4,46.8-11.4c16.9,0,32,3.7,45.2,11.1c13.2,7.4,23.5,17.8,30.9,31.2C1835.9,451,1839.6,466.3,1839.6,483.6z
					 M1800.9,471.9c-0.2-13.7-5.1-24.6-14.6-32.8c-9.5-8.2-21.3-12.4-35.4-12.4c-12.8,0-23.7,4.1-32.8,12.4
					c-9.1,8-14.5,19-16.3,32.8H1800.9z"/>
				<path class="st4" d="M463.7,204.1c-150.8,1.4-273.9,124.6-275.2,275.4c-0.6,74.3,27.9,141.9,74.8,192c4.1,4.4,5.7,10.5,4.3,16.3
					l-17.3,70.4c-0.8,3.4,2.6,6.3,5.8,4.9l71.3-31.3c5.9-2.6,12.7-2.5,18.5,0.4c37.4,18,79.5,28,124,27.4
					c150.5-1.9,273-125.1,274.1-275.6C745.2,328.8,619,202.7,463.7,204.1z"/>
				<path class="st3" d="M466.3,683.1c109.2,0,197.8-88.6,197.8-197.8s-88.6-197.8-197.8-197.8s-197.8,88.6-197.8,197.8
					S357,683.1,466.3,683.1z"/>
				<path class="st0" d="M546.2,500.8c-8-9.1-17.5-16-28.5-20.8c-11-4.7-25.1-9.3-42.2-13.9c-12.8-3.7-22.6-6.8-29.1-9.2
					c-6-2.2-11.2-5.2-15.6-9c-4.7-4.1-7.8-9.9-8-16c-0.2-8.4,3.2-15.1,10.3-20.1c6.8-4.9,16.7-7.3,29.6-7.3
					c12.8,0,23.6,3.1,31.3,9.4c3.9,3.1,6.9,6.8,9,11.1c4.3,8.4,12.4,14.2,21.8,14.2h0.4c17.9,0,29.8-19.2,21.2-34.9
					c-4.3-7.8-10-14.6-17.1-20.5c-16.4-13.6-38.1-20.3-64.9-20.3c-18,0-33.9,3-47.8,9c-13.8,6-24.5,14.2-31.9,24.6
					c-7.4,10.4-11.1,21.9-11.1,34.5c0,15.4,4.1,27.8,12.2,37.3c8.1,9.4,17.8,16.4,28.9,21c11.1,4.6,25.6,9.3,43.3,14.1
					c18.3,5.1,31.6,9.8,40.1,14.1c8.4,4.3,12.6,10.8,12.6,19.7c0,8.3-3.8,15.1-11.4,20.3c-7.6,5.3-18.2,7.9-31.9,7.9
					c-13.7,0-24.1-3.3-32.8-10.1c-4.8-3.7-8.5-8-10.9-12.7c-4-7.8-12.5-12.4-21.3-12.4h-0.3c-15.2,0-25.6,13.5-23.8,27
					c7.5,3.8,16.4,5.1,24.8,4c5.4-0.8,10.6-2.4,15.6-4.6c-4.7,2.9-9.8,5.4-15.1,7c-7.5,2.1-15.5,2.4-23.1,0.8
					c0.5,1.1,1.2,2.2,1.9,3.2c0.3,0.4,0.6,0.9,0.9,1.3c1.2,1.6,2.5,3.2,3.8,4.7c0,0,0.1-0.1,0.1-0.1c8.3,7.1,20.1,9.9,30.9,8.5
					c5.2-0.7,10.3-2.3,15.2-4.4c-4.5,2.8-9.5,5.2-14.7,6.7c-5.9,1.6-12.1,2.1-18.2,1.4c5.3,4,11.3,7.5,17.9,10.5
					c4.8,2.2,9.8,4,15.1,5.5c5.6-0.1,11.3-1.2,16.5-3.2c5.6-2.2,10.8-5.4,15.6-9c-4.3,4.4-9.1,8.4-14.5,11.5
					c-2.2,1.2-4.5,2.3-6.8,3.2c7.6,1.4,15.6,2.1,24,2.1c18.3,0,34.2-3,47.8-9c13.6-6,24.1-14.3,31.5-24.8
					c7.4-10.6,11.1-22.5,11.1-36C558.3,522,554.2,509.9,546.2,500.8L546.2,500.8z"/>
			</g>
		</g>
	</g>
</g>
</svg>
